<?xml version="1.0" standalone="no"?>
<!DOCTYPE svg PUBLIC "-//W3C//DTD SVG 1.1//EN" "http://www.w3.org/Graphics/SVG/1.1/DTD/svg11.dtd">
<svg xmlns="http://www.w3.org/2000/svg">
  <defs>
    <font id="PublicSans" horiz-adv-x="1145">
      <font-face font-family="Public Sans Thin" units-per-em="2000" panose-1="0 0 0 0 0 0 0 0 0 0" ascent="1900" descent="-450" alphabetic="0"/>
      <glyph unicode=" " glyph-name="gid404" horiz-adv-x="451"/>
      <glyph unicode="!" glyph-name="gid368" horiz-adv-x="560" d="M165,446l67,1000H570L346,446H165ZM29,0L76,312H390L343,0H29Z"/>
      <glyph unicode="&quot;" glyph-name="gid402" horiz-adv-x="954" d="M671,886l9,560H973L815,886H671Zm-437,0l9,560H536L378,886H234Z"/>
      <glyph unicode="#" glyph-name="gid375" horiz-adv-x="1195" d="M808-5L654,16L868,1449l152-15L808-5ZM67,450V602H1110V450H67ZM383-5L230,16L444,1449l151-15L383-5ZM131,860v152H1174V860H131Z"/>
      <glyph unicode="$" glyph-name="gid410" horiz-adv-x="1331" d="M612-20Q359-20 216,84.5T83,407l301,6q9-99 77.5-150.5T646,211q69,0 125.5,23.5t92.5,64T907,391q13,80-30.5,119.5T734,574L512,625Q356,658 274.5,756.5T216,1021q19,136 106.5,235.5T543,1410t289,54q159,0 267-58.5t156.5-157T1283,1031l-292-5q1,64-16,110t-58,71t-116,25q-77,0-135-22.5T572.5,1147T530,1055q-9-63 26.5-99.5T700,888l218-57q184-47 252-161t44-277q-18-125-98.5-218T905.5,31T612-20ZM459-191L497,69H746L707-191H459ZM698,1393l39,260H986l-39-260H698Z"/>
      <glyph unicode="%" glyph-name="gid447" horiz-adv-x="1745" d="M385-8L218-5L1384,1462h164L385-8Zm64,656q-86,0-150.5,43.5T198,810.5T162,981q0,64 24,147t73.5,160.5T385,1417t179,51q84,0 147-44.5t98.5-121T845,1130q0-78-26.5-162.5t-78-157T616,693T449,648Zm18,148q55,0 90,39.5T612.5,934t29,119.5T650,1156q0,78-25.5,121.5T541,1321q-52,0-87.5-40T397,1181t-30-121t-9-102q0-76 25.5-119T467,796ZM1227-20q-85,0-149.5,43.5t-100,119T942,312q0,80 27.5,165.5t80,159T1176,756t166,46q85,0 148.5-45t99-121T1625,464q0-78-27-162.5T1520,144T1395,25.5T1227-20Zm18,150q55,0 90,39t55.5,98t29,119.5T1428,488q0,78-25.5,121.5T1319,653q-51,0-86.5-40.5t-56.5-100T1146.5,392T1138,291q0-75 24.5-118t82.5-43Z"/>
      <glyph unicode="&amp;" glyph-name="gid449" horiz-adv-x="1530" d="M471-10Q316-10 222.5,37.5T92,169T72,363q14,99 65,175.5t139.5,141T493,808q-42,57-73,106t-44.5,100.5T372,1130q14,96 78.5,172.5t165,121T840,1468q119,0 211-39.5t139.5-110T1224,1154q-10-64-54-128.5T1048,896T857,768l176-266q18,31 44.5,80t53,110.5T1174,821h296q-38-89-94.5-173T1258,485.5T1145,334L1374,0H1044L946,142Q819,57 697,23.5T471-10ZM575,213q56,0 128,25.5T832,313L608,642q-82-45-145.5-111.5T397,379q-1-80 54.5-123T575,213ZM759,915q76,45 120.5,82.5T944,1070t25,71q8,53-10.5,86.5t-54,49T825,1290q-68-2-113-42.5T659,1150q-4-33 4-67t25-65.5T726,958l33-43Z"/>
      <glyph unicode="&apos;" glyph-name="gid403" horiz-adv-x="517" d="M234,886l9,560H536L378,886H234Z"/>
      <glyph unicode="(" glyph-name="gid380" horiz-adv-x="663" d="M271-286Q211-146 170-9.5T117,274t13,318q38,249 147.5,476.5T538,1482H742q-128-195-224-424.5T387,590q-33-227-9-438.5T473-286H271Z"/>
      <glyph unicode=")" glyph-name="gid381" horiz-adv-x="669" d="M-89-288Q40-92 135.5,137T266,604q34,229 9.5,439.5T179,1480H382q60-140 100.5-276.5t53-283.5T523,602Q485,354 376,126.5T114-288H-89Z"/>
      <glyph unicode="*" glyph-name="gid374" horiz-adv-x="946" d="M381,649L225,758l206,247l-294,82l62,170l278-121l-23,310H645l-27-311l283,124l54-170l-286-83L871,764L714,654L548,928L381,649Z"/>
      <glyph unicode="+" glyph-name="gid435" horiz-adv-x="1155" d="M433,256l140,945H783L643,256H433ZM131,621l32,213h920l-32-213H131Z"/>
      <glyph unicode="," glyph-name="gid364" horiz-adv-x="552" d="M-18-280L135-8L36,1L79,284H368L331,35L88-280H-18Z"/>
      <glyph unicode="-" glyph-name="gid386" horiz-adv-x="772" d="M105,408l30,213H666L636,409l-531-1Z"/>
      <glyph unicode="." glyph-name="gid363" horiz-adv-x="537" d="M26,0L75,318H389L341,0H26Z"/>
      <glyph unicode="/" glyph-name="gid376" horiz-adv-x="756" d="M-55-37L656,1446H857L146-37H-55Z"/>
      <glyph unicode="0" glyph-name="gid316" horiz-adv-x="1267" d="M559-22Q302-22 184.5,169T117,719q33,240 123,407t225,253.5T769,1466q254,0 372.5-192.5T1209,720q-51-359-222-550.5T559-22Zm34,239q125,0 199,115.5T904,719q39,277-3,397T735,1236T534.5,1115T418,719q-37-270 6-386T593,217Z"/>
      <glyph unicode="1" glyph-name="gid317" horiz-adv-x="847" d="M255,0L417,1083H166l24,165q121,0 199.5,23.5t122,68T572,1446H762L547,0H255Z"/>
      <glyph unicode="2" glyph-name="gid318" horiz-adv-x="1248" d="M39,0L59,144l11,74q18,128 84,217T312.5,586.5T506.5,697t192,94t152,102T923,1027q12,87-38.5,142T733,1224q-71,0-131.5-28t-106-84.5T427,971H150q21,138 98,250.5T457,1400t317,66q160,0 267.5-55t156-153t29.5-229q-18-127-82-214T991,669.5t-188.5-102T616,482T468.5,388T399,259l-2-13h719L1081,0H39Z"/>
      <glyph unicode="3" glyph-name="gid319" horiz-adv-x="1308" d="M553-22Q382-21 269.5,35.5T108,197T78,447H356q4-123 69-178t164-55q87,0 152.5,26t106,72.5T896,419q9,62-19,107t-85,70.5T657,624l-134,5l32,232l124,7q76,3 135.5,29T911,966.5t44,98.5q8,53-18.5,92T857,1218t-125,22q-67,0-126.5-23t-103-75.5T441,1001H164q22,156 109,259t216.5,154.5T770,1466q158,0 276.5-42T1225,1296t40-218q-15-107-87-188.5T963,760q75-22 134.5-67t90-115T1205,410q-15-106-73-187T985,87T785.5,5T553-22Z"/>
      <glyph unicode="4" glyph-name="gid320" horiz-adv-x="1283" d="M656,0l48,320H59L95,560l769,886h283L1018,565h215l-37-245H979L932,0H656ZM362,565H741l78,530L362,565Z"/>
      <glyph unicode="5" glyph-name="gid321" horiz-adv-x="1326" d="M611-22Q470-22 357.5,22T168,142.5T60,318L305,453q29-68 68.5-122.5t98-86T614,213q125,0 211,69T927,462q10,70-16.5,125.5T828,675T692,707q-43,0-81.5-7.5t-80.5-28T435,613q-16-6-21.5-6T395,614L199,712l168,734h910l-45-239H562L487,858q84,45 157,65t158,20q142,0 246-54.5T1202.5,729T1232,473q-21-153-104.5-264T912,38T611-22Z"/>
      <glyph unicode="6" glyph-name="gid322" horiz-adv-x="1298" d="M595-22Q414-22 295.5,67t-166,250T113,695q33,238 129,411t242,266.5T816,1466q134,0 239.5-49.5t163.5-143t47-224.5H1001q-13,91-66.5,138.5T789,1235q-100,0-175-59T495.5,1011T445,764q40,48 94,81.5T656.5,897T786,915q143,0 243.5-54.5t147-154.5T1204,472q-19-142-103.5-253.5t-215-176T595-22Zm22,224q67,0 126.5,32.5T844,325t51,133q11,80-13.5,133t-75,79.5T687,697q-59,0-118.5-27.5t-101-70T420,513q-14-97 6.5-166.5t70-107T617,202Z"/>
      <glyph unicode="7" glyph-name="gid323" horiz-adv-x="1226" d="M260,0q20,88 71,222.5t134,298T665,860t268,347H183l36,239H1271l-38-239q-78-86-162.5-203T905,754T755,485T637.5,224T571,0H260Z"/>
      <glyph unicode="8" glyph-name="gid324" horiz-adv-x="1318" d="M583-21Q412-21 291,30.5T112,177T72,401q12,83 62,157.5t119,126T389,750q-81,42-130,120t-34,189q19,132 98.5,222.5T525,1419t267,47t254-47t163-137.5t35-222.5q-15-111-86-189T995,750q63-14 117-65.5t84-126T1214,401q-18-129-102.5-224T891,30.5T583-21Zm31,220q123,0 201,57.5T906,409q9,64-15.5,112.5t-80,76.5T674,626T530,598T428.5,521.5T381,409q-13-95 49.5-152.5T614,199Zm93,664q95,0 165.5,53.5T956,1065q13,94-42,149t-150,55t-164.5-55T516,1065q-13-95 42-148.5T707,863Z"/>
      <glyph unicode="9" glyph-name="gid325" horiz-adv-x="1295" d="M533-22Q400-22 292.5,30T126,176.5T77,398H352q6-84 58.5-136.5T554,209q100,0 183,49T873.5,414T940,694q-35-53-88.5-92.5t-121-61T585,519q-144,0-247,55.5t-152,158T157,976q20,142 102,253t211,174t289,63q181,0 299-87.5t165.5-248T1240,753q-36-259-132-431.5T865.5,63.5T533-22ZM667,751q59,0 118.5,27.5T887,848t48,87q14,97-6.5,166.5t-70,106.5T737,1245q-66,0-123-32t-95-90T470,989q-16-113 39.5-175.5T667,751Z"/>
      <glyph unicode=":" glyph-name="gid365" horiz-adv-x="543" d="M130,696l46,313H492L445,696H130ZM27,6L74,318H390L343,6H27Z"/>
      <glyph unicode=";" glyph-name="gid366" horiz-adv-x="560" d="M-16-309L156,0H46L92,314H407L366,36L100-309H-16ZM144,687l47,318H506L459,687H144Z"/>
      <glyph unicode="&lt;" glyph-name="gid441" horiz-adv-x="1136" d="M968,208L123,565l36,242l952,360l-37-251L456,684l549-225L968,208Z"/>
      <glyph unicode="=" glyph-name="gid439" horiz-adv-x="1160" d="M162,811l32,213l921,1l-32-213l-921-1ZM94,354l32,213h921l-32-213H94Z"/>
      <glyph unicode="&gt;" glyph-name="gid440" horiz-adv-x="1137" d="M74,208l38,251L729,684L178,916l38,251l846-360l-36-242L74,208Z"/>
      <glyph unicode="?" glyph-name="gid370" horiz-adv-x="1044" d="M362,452q16,110 60.5,190.5t101,141T635,895t95,102.5T779,1111q11,71-34.5,113T621,1266q-52,0-104-23.5T420,1177t-75-99l-236,60q86,158 226.5,243T654,1466q139,0 237-46t144-123t32-171q-15-98-63-167T892.5,835.5t-127-108T654,608.5T593,452H362ZM253,0l47,312H615L568,0H253Z"/>
      <glyph unicode="@" glyph-name="gid448" horiz-adv-x="1614" d="M707-220q-174,0-302.5,57T195-5.5T83,227T75,509q23,158 98,298.5t193,249t271,170T969,1288q128,0 244.5-36t203-112T1543,945.5T1559,661q-23-148-87.5-261.5T1313.5,222T1110,158q-82,0-119.5,29T940,251q-5,12-8.5,11.5T917,251q-50-52-118.5-86.5T646,130q-80,0-139,42.5T422,293T412,475q18,120 80,223T649,863.5T860,926q80,0 122.5-29t69.5-71q3-5 7.5-3.5T1068,833l16,43h164L1115,446q-22-71-9-97t48-26q45,0 92,36.5t84.5,109T1384,649q20,135-9,226.5t-94,147T1128.5,1103T943,1128q-155,0-275.5-49T461,944.5T323,748T253,512q-20-135 4.5-242.5T348,86T518-29.5T761-69q87,0 150,16t115,43t105,60l68-119q-81-61-209-106T707-220Zm18,527q54,0 102.5,33.5t84.5,87T961,541q14,62 3.5,109T924,724t-75,27q-54,0-103-34.5T662.5,624T617,495q-11-78 14.5-133T725,307Z"/>
      <glyph unicode="A" glyph-name="gid1" horiz-adv-x="1421" d="M-16,0L701,1446h303L1291,0H1004L941,335H438L273,0H-16ZM541,590H910l-98,574L541,590Z"/>
      <glyph unicode="B" glyph-name="gid16" horiz-adv-x="1343" d="M89,0L303,1446H814q277,0 396-98t92-283q-16-106-80.5-185.5T1011,741q85-24 133.5-62.5t70.5-86t25-99.5t-5-103q-29-199-175-294.5T625,0H89ZM413,226H664q125,0 198,53.5T948,422q9,64-16,107t-75.5,65T738,616H470L413,226Zm90,622H771q43,0 84,10.5T930.5,891T988,948t30,82q15,94-45.5,142T807,1220H558L503,848Z"/>
      <glyph unicode="C" glyph-name="gid17" horiz-adv-x="1412" d="M658-20Q477-20 354,59.5t-183,226T121,633q8,168 59,318.5T325.5,1218t232,182T873,1466q157,0 270-62t173.5-174.5T1376,967H1073q-2,75-30,133.5t-81.5,92T827,1226q-99,0-170.5-51T538,1037.5T466.5,843T435,620q-13-208 52.5-304T685,220q80,0 143.5,38.5T937,360.5T1006,500h303q-28-103-77.5-196.5T1104.5,137T917.5,22T658-20Z"/>
      <glyph unicode="D" glyph-name="gid23" horiz-adv-x="1419" d="M90,0L297,1446q11,0 69-0.5t132-0.5q143,0 272-11.5t237-44t187-95.5t122.5-165.5T1360,875q0-86-15-183.5T1294.5,496T1197,309T1041,150.5T816.5,40.5T512,0H90ZM417,236H539q126,0 223,49.5T926,422t101,201.5T1061,870q0,121-43,195.5T894.5,1175T700,1210H560L417,236Z"/>
      <glyph unicode="E" glyph-name="gid28" horiz-adv-x="1255" d="M89,0L304,1446h968l-38-246H557L506,849h585l-35-241H468L415,249l689-1L1066,0H89Z"/>
      <glyph unicode="F" glyph-name="gid40" horiz-adv-x="1213" d="M89,0L304,1446h959l-38-244H558L505,839h577l-36-239H469L381,0H89Z"/>
      <glyph unicode="G" glyph-name="gid41" horiz-adv-x="1489" d="M650-20Q457-20 328,70.5T145.5,327T126,719q35,230 141,397.5T532.5,1375T888,1466q167,0 284-71t174-185.5T1388,967H1085q-3,69-31,126t-81,91.5T843,1219q-93,0-175-49.5T526,1012T440,727q-21-143-7-238t55-150.5T587,260t123-23q62,0 113.5,21.5t91,55.5T980,388.5t37,79.5l24,88H753l30,202l592-3L1263,0H1066l27,189q-44-49-103.5-97.5T847,11.5T650-20Z"/>
      <glyph unicode="H" glyph-name="gid46" horiz-adv-x="1515" d="M89,0L293,1446H583L501,866h612l81,580h290L1280,0H990l88,621H466L379,0H89Z"/>
      <glyph unicode="I" glyph-name="gid50" horiz-adv-x="623" d="M89,0L303,1446H592L379,0H89Z"/>
      <glyph unicode="J" glyph-name="gid62" horiz-adv-x="800" d="M223-20Q157-20 87.5-8.5T-15,12L31,279q27-6 62-16t78-10q99,0 141,53.5T371,480l143,966H802L648,402q-21-138-64.5-232T454.5,28T223-20Z"/>
      <glyph unicode="K" glyph-name="gid64" horiz-adv-x="1407" d="M89,0L304,1446H604L507,784l604,662h329L935,888L1279,0H965L695,674L450,415L389,0H89Z"/>
      <glyph unicode="L" glyph-name="gid66" horiz-adv-x="1136" d="M89,0L304,1446H594L417,247h607L987,0H89Z"/>
      <glyph unicode="M" glyph-name="gid72" horiz-adv-x="1807" d="M89,0L303,1446H724L888,415l471,1031h417L1563,0H1272l163,1106L938,0H713L543,1101L380,0H89Z"/>
      <glyph unicode="N" glyph-name="gid73" horiz-adv-x="1546" d="M89,0L304,1446H591l494-957l140,957h290L1300,0H1040L525,995L379,0H89Z"/>
      <glyph unicode="O" glyph-name="gid80" horiz-adv-x="1491" d="M666-20Q466-20 333.5,69t-187,254.5T126,719q35,231 140,398.5t264.5,258T886,1466t327.5-90T1400,1118.5T1421,720q-34-229-137.5-395T1022,69.5T666-20Zm36,240q101,0 183,50.5T1023.5,430T1106,716q27,180 2.5,292.5t-91,165T850,1226q-151,0-260-120T441,716q-26-176-0.5-285.5t93-160T702,220Z"/>
      <glyph unicode="P" glyph-name="gid96" horiz-adv-x="1286" d="M89,0L304,1446H823q153,0 266.5-54.5T1258,1231t32-259q-21-144-98.5-246T994,570T722,516H458L381,0H89ZM488,742H748q70,0 129,32t97.5,87.5T1023,987q15,108-46,171.5T814,1222H559L488,742Z"/>
      <glyph unicode="Q" glyph-name="gid98" horiz-adv-x="1516" d="M1273-246q-93,0-172.5,16T953-162.5T828-6q-51-7-87.5-10.5T666-20Q467-20 334.5,68.5T147,322.5T127,720q34,232 139,399t264,257t356,90t329-90t187-257t21-399q-29-198-109.5-348T1102,121q13-60 71-96t136-37l-36-234ZM701,220q158,0 262.5,115.5T1107,717q27,179 4,291t-90,165t-171,53q-157,0-262.5-120.5T442,716q-38-265 32.5-380.5T701,220Z"/>
      <glyph unicode="R" glyph-name="gid99" horiz-adv-x="1365" d="M89,0L303,1446H897q169,0 268-55t135.5-152.5T1318,1014q-17-114-63-192.5T1146,691t-134-85L1182,0H884L739,557H459L377,0H89ZM493,782H751q74,0 132,28.5t95,79t47,117.5q15,100-40,158t-150,58H558L493,782Z"/>
      <glyph unicode="S" glyph-name="gid106" horiz-adv-x="1379" d="M623-20Q517-20 418.5,6t-175,79t-119,135T87,413H389q4-66 38.5-111t93-69T655,209q78,0 145,20t111.5,60.5T965,391q8,55-19,90t-78,57T750,574L513,625Q355,656 274.5,755.5T215,1021q19,136 107,235.5T543,1410t288,54q168,0 283.5-63T1288,1238t51-212H1043q4,76-26,121t-85.5,65T802,1232q-76,0-135-22.5T572.5,1147T530,1055q-9-63 26.5-102T700,889l234-51q129-26 199.5-77t100-115T1266,515.5T1261,393q-16-117-102.5-210.5T934,34.5T623-20Z"/>
      <glyph unicode="T" glyph-name="gid114" horiz-adv-x="1206" d="M380,0L554,1186H133l39,260H1297l-39-260H844L668,0H380Z"/>
      <glyph unicode="U" glyph-name="gid120" horiz-adv-x="1425" d="M646-20Q439-20 325.5,50.5T176.5,251T168,561l130,885H593L458,539q-16-108 8-176.5T546.5,261T683,228q119,0 207,74t111,237l133,907h292L1295,551q-27-175-101.5-303.5T985,49.5T646-20Z"/>
      <glyph unicode="V" glyph-name="gid134" horiz-adv-x="1368" d="M436,0L169,1446H444L650,339l534,1107h276L761,0H436Z"/>
      <glyph unicode="W" glyph-name="gid135" horiz-adv-x="1886" d="M370,0L170,1446H453L571,491l398,955h208l123-955l397,955h282L1349,0H1120L998,945L595,0H370Z"/>
      <glyph unicode="X" glyph-name="gid140" horiz-adv-x="1404" d="M-16,0L559,734L213,1446H572L779,980l343,466h306L897,772L1275,0H914L679,520L296,0H-16Z"/>
      <glyph unicode="Y" glyph-name="gid141" horiz-adv-x="1304" d="M424,0l88,609L150,1446H462L697,860l402,586h316L802,608L711,0H424Z"/>
      <glyph unicode="Z" glyph-name="gid149" horiz-adv-x="1322" d="M35,0L57,142L922,1202H261l38,244H1372l-20-136L474,247h712L1149,0H35Z"/>
      <glyph unicode="[" glyph-name="gid384" horiz-adv-x="677" d="M31-322L292,1446H740l-25-165H503L291-156H503L478-322H31Z"/>
      <glyph unicode="\" glyph-name="gid377" horiz-adv-x="734" d="M425-37L154,1446H354L626-37H425Z"/>
      <glyph unicode="]" glyph-name="gid385" horiz-adv-x="677" d="M-50-322l25,166H187L399,1281H187l25,165H659L398-322H-50Z"/>
      <glyph unicode="^" glyph-name="gid445" horiz-adv-x="946" d="M624,245L500,756L224,246H31L442,982q25,45 64,61.5t73.5,2T627,983L818,245H624Z"/>
      <glyph unicode="_" glyph-name="gid390" horiz-adv-x="1086" d="M5-276L37-65l845,1L849-276H5Z"/>
      <glyph unicode="`" glyph-name="gid483" horiz-adv-x="606" d="M475,1155L167,1446H466l220-291H475Z"/>
      <glyph unicode="a" glyph-name="gid154" horiz-adv-x="1114" d="M347-20q-97,0-168.5,37T72.5,124.5T52,296Q77,466 214.5,554.5T619,646l124,2l9,62q10,73-28,110.5T609,857q-60-1-121.5-31T395,726H156q21,107 91,180t174.5,110.5T652,1054q154,0 242-41t119.5-114.5T1031,727L923,0H682l1,175Q615,63 533,21.5T347-20ZM471,172q39,0 76.5,14.5t69,39T670,281t27,64l23,153l-100-2q-69-1-131.5-17.5T383,425T330,325q-9-72 32-112.5T471,172Z"/>
      <glyph unicode="b" glyph-name="gid169" horiz-adv-x="1200" d="M619-20Q546-20 494,0T408.5,53.5T356,128t-27,84L267,0H57L261,1486H552L471,894q24,33 57,62t75,51t90.5,34.5T796,1054q187,0 275-139t54-392q-34-246-164-394.5T619-20ZM585,190q90,0 161,77.5T842,527q22,161-25,238T672,842q-104,0-166.5-78.5T421,527q-25-183 16.5-260T585,190Z"/>
      <glyph unicode="c" glyph-name="gid170" horiz-adv-x="1071" d="M483-20Q342-20 242,44T96.5,227.5T75,513Q99,673 177.5,795t198,190.5T641,1054q128,0 212.5-53T977,858t30-201H767q0,41-15,81.5t-49,67T611,832q-99,0-171.5-78.5T343,515q-22-151 26-239.5T521,187q58,0 100,29t68.5,69.5T726,361H960q-21-107-87-193.5T707,30.5T483-20Z"/>
      <glyph unicode="d" glyph-name="gid176" horiz-adv-x="1198" d="M432-20Q228-20 134.5,123.5T76,523q34,243 157,387t318,144q53,0 98.5-12.5T731,1007t61.5-51T832,894l81,592h291L1000,0H790l-4,212q-19-43-49.5-84T663,53.5T563,0T432-20Zm93,210q105,0 168,77t89,260q13,106-0.5,176T727,807.5T616,842q-92,0-162.5-72.5T360,527q-23-173 22.5-255T525,190Z"/>
      <glyph unicode="e" glyph-name="gid181" horiz-adv-x="1126" d="M506-20Q357-20 253,44.5T103.5,227T82,505q22,155 98.5,279.5T377,981.5T651,1054q155,0 249.5-66.5t130.5-185T1044,529l-13-79H359q-13-79 3-137.5t59.5-90T532,191q72,0 130.5,32T753,328h260Q980,218 900,140T716,21T506-20ZM382,624H788q10,62-5,114t-55,82T620,850q-64,0-114.5-32.5T423,733T382,624Z"/>
      <glyph unicode="f" glyph-name="gid194" horiz-adv-x="779" d="M157,0L279,831H94l31,203H309l22,149q19,125 101,194t213,69H878l-28-194H719q-54,0-78.5-27.5T606,1134l-14-100H808L778,831H567L444,0H157Z"/>
      <glyph unicode="g" glyph-name="gid195" horiz-adv-x="1230" d="M487-342q-276,0-410,75T-41-73q8,50 38.5,83.5T67,64.5t71.5,32T181,113q-12,8-39.5,26t-49,51T79,276q7,49 61.5,92.5T308,432q-90,46-132,131.5T146,741q13,92 79.5,162T402,1011.5T657,1050q109,0 172.5-24T941,968q27,10 67,25.5t86,33.5t90,35.5t78,30.5l-27-228l-181-37q15-61 8-116q-12-86-72.5-161t-166-120.5T569,385q-23,0-54.5,1T469,388q-60,1-86-7t-27-26q3-26 43-37.5T512,300q36-3 91-5.5T719,287q190-12 274-97t66-213q-19-140-162.5-229.5T487-342Zm45,163q122,0 180.5,34.5T779-48q5,42-27.5,67T646,49L419,64q-46,3-84-14.5t-62.5-47T244-63q-9-59 61-87.5T532-179Zm44,727q84,0 143.5,49.5T790,732q11,75-28,119.5T649,896q-84,0-144.5-54T432,702q-10-71 28-112.5T576,548Z"/>
      <glyph unicode="h" glyph-name="gid200" horiz-adv-x="1174" d="M57,0L273,1486H561L476,898q43,54 115,98t192,44q95,0 169.5-40.5t112-113.5T1087,715L983,0H694l97,674q10,66-33.5,103T646,814q-47,0-91-17t-74.5-50T444,666L346,0H57Z"/>
      <glyph unicode="i" glyph-name="gid204" horiz-adv-x="533" d="M55,0L201,1034H478L332,0H55ZM219,1183l37,263H538l-37-263H219Z"/>
      <glyph unicode="j" glyph-name="gid217" horiz-adv-x="579" d="M-24-332q-78,0-101,14.5T-148-303l28,195l79,8q61,8 87.5,34T80,10L232,1034H520L368,7Q343-162 249.5-247T-24-332ZM254,1210l40,263H588l-39-263H254Z"/>
      <glyph unicode="k" glyph-name="gid220" horiz-adv-x="1140" d="M52,0L272,1486H561L431,605l428,429h309L741,622L1026,0H739L537,446L385,300L340,0H52Z"/>
      <glyph unicode="l" glyph-name="gid223" horiz-adv-x="649" d="M372-18Q260-18 198.5,9T112,80.5t-26,99T93,290L270,1486H554L382,326q-8-57 10.5-92.5T476,190l45-3L495,7Q464-3 432-10.5T372-18Z"/>
      <glyph unicode="m" glyph-name="gid229" horiz-adv-x="1755" d="M52,0L206,1034H488L468,901q55,64 138,108.5T806,1054q78,0 153-35.5T1066,901q62,71 152,112t177,41q56,0 110.5-19.5t97-60.5t62-106.5T1671,710L1566,0H1277l101,678q9,60-8.5,95.5t-51,51.5T1246,841q-56,0-97-20.5T1082.5,758T1047,651L951,0H664L768,704q7,44-12.5,74.5T702,825t-70,16q-38,0-79-16t-71.5-48.5T444,694L340,0H52Z"/>
      <glyph unicode="n" glyph-name="gid230" horiz-adv-x="1169" d="M52,0L207,1034H489L471,901q35,38 76.5,70t98.5,52t136,20q92,0 165.5-43.5t111.5-123T1081,689L978,0H689l97,654q12,77-30.5,118.5T647,814q-46,0-91-16.5T479.5,749T441,669L341,0H52Z"/>
      <glyph unicode="o" glyph-name="gid237" horiz-adv-x="1127" d="M485-20Q337-20 237,45T94.5,229T75,511Q99,674 176.5,796T374,986t268,68q150,0 249.5-66.5t141-188.5T1050,511q-23-156-98.5-275.5T757.5,48T485-20Zm35,217q73,0 124.5,45T727,360.5T770,521q11,82 2.5,155T726,794T610,839q-75,0-127-42.5t-82-115T359,521q-12-81-3.5-155.5t47-121.5T520,197Z"/>
      <glyph unicode="p" glyph-name="gid253" horiz-adv-x="1196" d="M12-322L198,1034H489L470,885q38,48 90,86.5T675,1032t130,22q113,0 193-56.5t114-174t9-298.5q-25-188-96.5-308.5T850.5,38T629-20q-48,0-88.5,13.5T466.5,31T408,86.5T367,155L302-322H12ZM589,194q91,0 164,79t96,250q20,150-27.5,234.5T676,842q-109,0-174.5-91.5T418,523q-12-87 1-162t55-121t115-46Z"/>
      <glyph unicode="q" glyph-name="gid255" horiz-adv-x="1196" d="M662-322l66,477q-35-49-83-88.5T540,3.5T419-20Q305-20 218,35T90.5,210.5T77,525q24,175 88,292.5t159.5,177T538,1054q50,0 95-12.5t82-35.5t65-53.5T827,885l22,149h290L953-322H662ZM519,194q73,0 127.5,46t88,121T779,523q19,136-21.5,227.5T607,842q-91,0-164.5-80.5T348,523q-22-163 26-246t145-83Z"/>
      <glyph unicode="r" glyph-name="gid256" horiz-adv-x="804" d="M53,0L198,1034H477L443,789q35,79 88,138.5t121.5,93T801,1054q14,0 25.5-1.5T843,1048L804,770q-8,4-19.5,5T764,777q-113,10-184.5-14.5t-109-76T423,566L343,0H53Z"/>
      <glyph unicode="s" glyph-name="gid263" horiz-adv-x="1037" d="M457-20Q351-20 258.5,15.5t-150,112T49,326H300q5-55 34.5-87T405,193.5T484,180q81,0 134,26.5T679,288q6,42-20,67t-93,38L395,431q-131,29-202.5,98.5T138,727q12,93 71,167t160,117t240,43q188,0 288.5-84T978,733H736q-2,60-44.5,92.5T578,858q-72,0-123.5-27T396,749q-6-41 29.5-64.5T540,644l158-38q82-21 130.5-57.5t72-79.5t29-86.5T929,304q-14-103-78-175.5T685,18T457-20Z"/>
      <glyph unicode="t" glyph-name="gid271" horiz-adv-x="820" d="M481-11Q347-11 279,24t-87.5,98T184,268l83,563H104l31,203H307l92,312H632l-46-311H810L779,831H556L476,283q-8-57 12.5-73T553,194H688L661,14Q640,5 597.5-3T481-11Z"/>
      <glyph unicode="u" glyph-name="gid277" horiz-adv-x="1173" d="M422-20Q352-20 287,2T172.5,67T98,173T85,319l100,715H476L380,356q-10-72 28.5-118T535,192q82,0 136.5,44.5T737,361l95,673h288L975,0H756l-4,205q-31-91-86.5-139.5t-120-67T422-20Z"/>
      <glyph unicode="v" glyph-name="gid292" horiz-adv-x="1016" d="M324,0L100,1034H361L480,375h8l311,659h263L530,0H324Z"/>
      <glyph unicode="w" glyph-name="gid293" horiz-adv-x="1535" d="M275,0L103,1034H358l95-641h7l278,641H943l91-641h7l279,641h259L1094,0H868L774,626L496,0H275Z"/>
      <glyph unicode="x" glyph-name="gid298" horiz-adv-x="1148" d="M-38,0L428,539L150,1034H450L615,744l246,290h302L735,539L1040,0H740L551,337L264,0H-38Z"/>
      <glyph unicode="y" glyph-name="gid299" horiz-adv-x="1099" d="M152-330Q49-330 9-312.5T-31-295L-4-109l99-4q87-5 132.5,13.5t64,44.5T318-14l26,57L100,1034H385L523,360l341,674h282L588-6Q514-138 444-208T302.5-304T152-330Z"/>
      <glyph unicode="z" glyph-name="gid307" horiz-adv-x="978" d="M-8,0L13,163L602,830H141l28,204H984L964,871L375,204H871L842,0H-8Z"/>
      <glyph unicode="{" glyph-name="gid382" horiz-adv-x="761" d="M423-322q-77,0-142.5,27t-102,80T154-83l60,407q8,47-9,86t-62,63T21,497L44,644q116,1 174,47.5T289,825l57,385q11,78 63.5,130.5t125,79T681,1446H824l-25-165H713q-55,0-82.5-14t-38-37.5T578,1177L519,781q-12-70-50.5-113.5t-88-64.5T284,577q-12-1-13-6t11-7q44-4 88-23.5T439.5,476T455,349L396-51q-8-55 13.5-80T502-156h84L561-322H423Z"/>
      <glyph unicode="|" glyph-name="gid456" horiz-adv-x="547" d="M44-322L335,1652H546L254-322H44Z"/>
      <glyph unicode="}" glyph-name="gid383" horiz-adv-x="760" d="M-89-322l25,166H23q54,0 81.5,13.5t38,37T157-53l59,396q12,70 50.5,113.5t88,64.5T452,547q11,2 12.5,7T454,560q-45,4-89,23.5T295.5,648T280,775l59,400q9,56-13,81t-93,25H149l25,165H312q77,0 143-26.5t102-80T581,1207L521,800q-8-47 9-86t62-62.5T714,628L691,480q-116,0-174-46.5T447,299L389-86q-11-78-63.5-130.5t-125-79T55-322H-89Z"/>
      <glyph unicode="~" glyph-name="gid443" horiz-adv-x="1200" d="M200,555L139,702q83,76 162,127.5T476,881q59,0 102.5-19T659,819.5T733,777t83-19q70,0 128,42.5T1044,900l62-145q-61-88-144.5-134.5T793,574q-58,0-102,18.5t-81.5,43t-76,43T445,697q-74,0-133-44.5T200,555Z"/>
      <glyph unicode="&#xa0;" glyph-name="gid405" horiz-adv-x="451"/>
      <glyph unicode="&#xa1;" glyph-name="gid369" horiz-adv-x="564" d="M-13-322L193,586H373L327-322H-13ZM142,722l44,312H502L458,722H142Z"/>
      <glyph unicode="&#xa2;" glyph-name="gid407" horiz-adv-x="1153" d="M565,202q-148,0-254.5,64T156,449.5T133,735q25,160 108,282t209.5,190.5T732,1276q136,0 225-53t130.5-143T1119,879H862q0,41-15.5,81.5t-51,67T699,1054q-102,0-177.5-78.5T421,737q-23-151 26.5-239.5T606,409q60,0 104,29t71.5,69.5T819,583h251q-22-107-91.5-193.5t-176-137T565,202ZM420,0l50,336H659L609,0H420ZM614,1110l50,336H853l-50-336H614Z"/>
      <glyph unicode="&#xa3;" glyph-name="gid419" horiz-adv-x="1268" d="M-32,0L4,242H70q72,0 126,48.5T266,448q8,48 10,97.5T280,677H80l26,162H271l8,181q2,108 45,191t115,140t161.5,86T784,1466q106,0 190-34t141.5-98.5T1197,1179l-262-78q-20,70-51,101.5T793,1234q-68,0-118-44.5T613,1065q-6-42-6-97.5T612,840H895L870,678H609q-4-68-11.5-114.5T573,467q-15-57-36.5-97t-49-69.5T427,244H685q93,0 145.5,36T927,404l235-54Q1090,176 967.5,88T669,0H-32Z"/>
      <glyph unicode="&#xa4;" glyph-name="gid409" horiz-adv-x="1139" d="M153,234L53,360L201,490q-27,56-35,111.5T167,727q10,62 32.5,116.5T259,947q7,11 7.5,17T259,978l-96,118l139,127l111-135q55,34 117.5,53.5T653,1161q120,0 214-65q11-8 23,2l124,112l101-125L979,964q25-53 34.5-112T1013,728q-9-60-33.5-119.5T915,501q-6-11-2-16l97-113L870,247L771,368q-57-35-118-54.5T529,294q-120,0-211,62q-15,12-30-3L153,234ZM556,487q66,0 123.5,33.5T776,609t48,119q10,63-12,118t-70,89T627,969q-66,0-124-34t-97-89T358,728q-10-64 12.5-119T441,520.5T556,487Z"/>
      <glyph unicode="&#xa5;" glyph-name="gid421" horiz-adv-x="1284" d="M402,0l88,603L120,1446H494L724,867l400,579h302L824,638L729,0H402ZM146,224l23,158l906,1l-23-158l-906-1Zm46,313l24,159l907,1l-24-160H192Z"/>
      <glyph unicode="&#xa6;" glyph-name="gid457" horiz-adv-x="547" d="M215,837l120,815H546L425,837H215ZM44-322L164,494H373L254-322H44Z"/>
      <glyph unicode="&#xa7;" glyph-name="gid451" horiz-adv-x="1003" d="M408-155q-113,0-198.5,32T69-38T-6,77l190,90q32-56 88-100T429,23q76,0 128,27.5T617,132q6,40-20,73T488,274L348,331Q202,391 142.5,464.5T99,651q14,92 70.5,158.5T309,913q-81,56-105.5,115.5T188,1158q13,87 71.5,156.5T412,1425t216,41q99,0 176-31t128-81.5t71-107.5l-190-88q-35,49-82,89.5T609,1288q-68,0-110.5-28T449,1185q-4-35 21.5-62t69.5-47l142-60q153-64 215-140t44-193q-13-94-65.5-156T747,423q81-51 112.5-111T878,169Q864,74 804.5,1t-160-114.5T408-155ZM559,515q37-4 69,13t51.5,47.5T701,643q2,44-25,78T575,786l-81,35q-44-4-77-22.5T364,752t-25-59q-6-43 18.5-71.5T469,555l90-40Z"/>
      <glyph unicode="&#xa8;" glyph-name="gid482" horiz-adv-x="738" d="M547,1208l36,238H856l-35-238H547Zm-441,0l36,238H415l-35-238H106Z"/>
      <glyph unicode="&#xa9;" glyph-name="gid452" horiz-adv-x="1618" d="M721-20Q572-20 449.5,37.5T243,197T123,434T110,724q22,153 98,287.5T398.5,1248T652,1408t288,58q150,0 272-58t206.5-160T1539,1011.5T1553,724q-24-155-100.5-290T1262,197T1009,37.5T721-20Zm54,333q-112,0-192,52T467,510T449,725q18,124 82,218t159.5,146.5T898,1142q95,0 158.5-39t98-98.5T1199,883L996,860q-6,33-18,62t-35,48t-61,19q-49,0-89.5-29T723,873.5T681,729q-20-134 18-198.5T817,466q68,0 114,39.5t84,99.5l138-37q-17-36-48.5-80t-79-84t-110-65.5T775,313ZM746,143q119,0 224.5,40.5t190,116.5t141,183.5T1378,724q19,132-5.5,238.5T1286,1146t-156,118.5T917,1306q-120,0-226.5-41.5T500,1146T360,962.5T285,724q-27-177 23.5-307.5T472,214.5T746,143Z"/>
      <glyph unicode="&#xaa;" glyph-name="gid314" horiz-adv-x="763" d="M318,794q-94,0-138,50.5T148,978q14,97 105,157.5T490,1201l74,4l5,43q9,57-19,76t-65,19t-70.5-17T352,1259l-147,36q48,83 115.5,126T508,1464q143-1 192.5-56T736,1257q-12-83-19.5-137.5T701,1006q-2-11-5-37.5T690.5,913T688,865l4-59H521l-5,70q-53-41-97.5-61.5T318,794Zm82,119q56,0 97,35q15,14 26,27t12,31l13,97l-58-3q-73-3-118.5-32.5T319,989q-4-34 17.5-55T400,913Z"/>
      <glyph unicode="&#xab;" glyph-name="gid398" horiz-adv-x="981" d="M642,129L468,502L755,891H909L695,502L795,129H642Zm-370,0L99,502L384,891H539L325,502l99-373H272Z"/>
      <glyph unicode="&#xac;" glyph-name="gid444" horiz-adv-x="1156" d="M131,621l32,213h921l-33-213H131ZM773,319l64,442h235l-65-442H773Z"/>
      <glyph unicode="&#xad;" glyph-name="gid387" horiz-adv-x="772" d="M105,408l30,213H666L636,409l-531-1Z"/>
      <glyph unicode="&#xae;" glyph-name="gid453" horiz-adv-x="1077" d="M533,536q-126,0-219.5,62T175,765.5T149,1000t95,235t188,168.5T670,1466q124,0 216.5-62.5t138-168.5t26.5-235T956,765.5T768.5,598T533,536Zm17,116q98,0 178,43T860,816t68,184q15,106-14,184.5t-96,122T653,1350q-100,0-180-43.5t-132-122T273,1000q-23-158 52-253t225-95ZM384,767l69,461H663q81,0 121.5-31.5T816,1105q-7-48-38.5-78.5T707,981l57-214H640L602,969H526L497,767H384Zm154,283h93q26,0 44.5,12t22.5,36q3,23-11.5,36.5T640,1148H552l-14-98Z"/>
      <glyph unicode="&#xaf;" glyph-name="gid490" horiz-adv-x="773" d="M138,1205l28,187H854l-28-187H138Z"/>
      <glyph unicode="&#xb0;" glyph-name="gid455" horiz-adv-x="930" d="M523,1001q-94,0-161,43t-98,118.5T247,1336q15,98 68.5,174T449,1629.5T623,1673q93,0 160-43.5T881.5,1510T899,1336q-15-98-69-173.5T696,1044t-173-43Zm23,164q71,0 119.5,47.5T725,1334q12,74-23.5,121T594,1502q-71,0-120.5-47T414,1334q-9-74 25.5-121.5T546,1165Z"/>
      <glyph unicode="&#xb1;" glyph-name="gid442" horiz-adv-x="1161" d="M463,427l140,944H814L672,427H463ZM54,71L86,283h920L975,72L54,71ZM161,791l32,213l920,1l-32-213l-920-1Z"/>
      <glyph unicode="&#xb2;" glyph-name="gid357" horiz-adv-x="766" d="M64,768l13,91l7,46q12,81 53,136.5t99.5,95t122,70T479,1266t96,64t45,84q8,55-24,89.5T501,1538q-67,0-119-40t-73-119H134q19,130 118.5,220.5T527,1690q150,0 226.5-76T812,1415q-12-80-52.5-134.5t-97-91t-118-64.5t-117-54T335,1012t-44-81l-1-9H742L719,768H64Z"/>
      <glyph unicode="&#xb3;" glyph-name="gid358" horiz-adv-x="829" d="M407,754q-161,1-239,79.5T108,1049H283q3-77 43.5-111.5T430,903q81,0 132.5,36t60.5,92q8,59-34.5,93T472,1161l-85,3l21,146l78,4q48,2 85,18t60.5,44t28.5,62q6,50-33.5,80T519,1548q-42,0-79.5-15t-65-47.5T336,1397H162q14,99 68,163.5t136,97T543,1690q100,0 174.5-26.5t112-80T855,1446q-10-68-55-119t-136-81q48-14 85.5-42.5t57-72T817,1026q-13-89-72-150T597.5,784.5T407,754Z"/>
      <glyph unicode="&#xb4;" glyph-name="gid484" horiz-adv-x="524" d="M100,1155l241,291H644L313,1155H100Z"/>
      <glyph unicode="&#xb5;" glyph-name="gid446" horiz-adv-x="1195" d="M-7-330L199,1060H495L396,401q-4-41 12-73t49-50t79-18q62,0 118,37.5T749,399l97,661h300L983,0H695l24,164q-57-52-105.5-80T511,47q-43-6-85-1.5T348,70L289-330H-7Z"/>
      <glyph unicode="&#xb6;" glyph-name="gid450" horiz-adv-x="1175" d="M368-166L481,598q-109,8-191.5,59T167,798.5T146,1017q17,117 83,214.5t175.5,156T660,1446h534l-25-165H1048L834-166H657L872,1281H759L543-166H368Z"/>
      <glyph unicode="&#xb7;" glyph-name="gid372" horiz-adv-x="516" d="M109,585l44,287H446L402,585H109Z"/>
      <glyph unicode="&#xb8;" glyph-name="gid491" horiz-adv-x="536" d="M122-425Q61-425 5.5-413T-95-371l54,98q27-19 63.5-34T102-322q46,0 73.5,16.5T207-260q6,39-28,60T54-178q-12,0-16,3.5T42-159L138,10H264L205-107q72-2 112-26t53.5-59.5T379-263q-7-51-45-87.5T240-406T122-425Z"/>
      <glyph unicode="&#xb9;" glyph-name="gid356" horiz-adv-x="504" d="M199,760l101,681H143l15,104q114,0 169.5,33t70.5,92H518L382,760H199Z"/>
      <glyph unicode="&#xba;" glyph-name="gid315" horiz-adv-x="755" d="M415,795q-136,0-204.5,93.5T162,1127q14,101 63.5,177T349,1422.5T511,1465q136,0 205.5-94.5T765,1127q-13-97-61.5-172T581,837.5T415,795Zm18,128q63,0 101.5,53T587,1132q15,103-8.5,155.5T493,1340t-99.5-52.5T341,1132t8.5-156T433,923Z"/>
      <glyph unicode="&#xbb;" glyph-name="gid399" horiz-adv-x="980" d="M439,129L652,502L552,891H706L876,502L593,129H439ZM71,129L280,502L182,891H336L506,502L222,129H71Z"/>
      <glyph unicode="&#xbc;" glyph-name="gid361" horiz-adv-x="1614" d="M199,552l101,681H143l15,104q114,0 169.5,33t70.5,92H518L382,552H199ZM311-8L144-5L1310,1462h164L311-8Zm875,8l30,202H810l23,151l483,557h179l-82-554h136l-23-154H1389L1359,0H1186ZM1001,356h238l49,332L1001,356Z"/>
      <glyph unicode="&#xbd;" glyph-name="gid360" horiz-adv-x="1755" d="M199,552l101,681H143l15,104q114,0 169.5,33t70.5,92H518L382,552H199ZM311-8L144-5L1310,1462h164L311-8ZM974,0l13,91l8,46q11,81 52,136.5t99.5,95t122,70T1389,498t96,64t46,84q7,55-25,89.5T1411,770q-66,0-118-40t-74-119H1044q20,130 119,220.5T1437,922q151,0 227-76t58-199q-11-80-51.5-134.5t-97.5-91T1454.5,357T1338,303t-92.5-59T1201,163l-1-9h452L1630,0H974Z"/>
      <glyph unicode="&#xbe;" glyph-name="gid362" horiz-adv-x="1862" d="M407,544q-161,1-239,79.5T108,839H283q3-77 43.5-111.5T430,693q81,0 132.5,36T623,821q8,59-34.5,93T472,951l-85,3l21,146l78,4q48,2 85,18t60.5,44t28.5,62q6,50-33.5,80T519,1338q-42,0-79.5-15t-65-47.5T336,1187H162q14,99 68,163.5t136,97T543,1480q100,0 174.5-26.5t112-80T855,1236q-10-68-55-119t-136-81q48-14 85.5-42.5t57-72T817,816q-13-89-72-150T597.5,574.5T407,544ZM559-8L392-5L1558,1462h164L559-8Zm875,8l30,202H1058l23,151l483,557h179l-82-554h136l-23-154H1637L1607,0H1434ZM1249,356h238l49,332L1249,356Z"/>
      <glyph unicode="&#xbf;" glyph-name="gid371" horiz-adv-x="1067" d="M414-342q-154,0-251.5,46T23-172.5T-6,0Q8,97 54.5,161T163,271.5t124,90t107,98T451,595H685q-14-100-56-169.5T532,305T423.5,211t-92-89T284,15q-9-66 37-108t123-42q52,0 105,23t97.5,64T719,47L957-12Q874-170 734-256T414-342ZM427,722l44,312H787L744,722H427Z"/>
      <glyph unicode="&#xc0;" glyph-name="gid7" horiz-adv-x="1421" d="M-16,0L701,1446h303L1291,0H1004L941,335H438L273,0H-16ZM541,590H910l-98,574L541,590Zm216,977L449,1858H748l220-291H757Z"/>
      <glyph unicode="&#xc1;" glyph-name="gid2" horiz-adv-x="1421" d="M-16,0L701,1446h303L1291,0H1004L941,335H438L273,0H-16ZM541,590H910l-98,574L541,590Zm215,977l241,291h303L969,1567H756Z"/>
      <glyph unicode="&#xc2;" glyph-name="gid4" horiz-adv-x="1421" d="M-16,0L701,1446h303L1291,0H1004L941,335H438L273,0H-16ZM541,590H910l-98,574L541,590Zm-78,977l267,259H929l244-259H947L825,1707L677,1567H463Z"/>
      <glyph unicode="&#xc3;" glyph-name="gid13" horiz-adv-x="1421" d="M-16,0L701,1446h303L1291,0H1004L941,335H438L273,0H-16ZM541,590H910l-98,574L541,590Zm48,1018l-24,141q42,39 89,65.5T768,1841q54,0 101-15t90-30.5t88-15.5q50,0 94,22.5t77,47.5l13-163q-34-25-88.5-48T1022,1616q-54,0-96.5,14T842,1658.5T752,1673t-84.5-16T589,1608Z"/>
      <glyph unicode="&#xc4;" glyph-name="gid6" horiz-adv-x="1421" d="M-16,0L701,1446h303L1291,0H1004L941,335H438L273,0H-16ZM541,590H910l-98,574L541,590ZM959,1620l36,238h273l-35-238H959Zm-441,0l36,238H827l-35-238H518Z"/>
      <glyph unicode="&#xc5;" glyph-name="gid11" horiz-adv-x="1421" d="M-16,0L701,1446h303L1291,0H1004L941,335H438L273,0H-16ZM541,590H910l-98,574L541,590Zm327,957q-89,0-141,64t-38,157q9,58 45,106t88.5,76T933,1978q88,0 140.5-62.5T1112,1764q-8-61-44-110t-88.5-78T868,1547Zm16,114q40,0 72,31t39,71q6,43-17.5,71T913,1862q-39,0-72.5-28T800,1763q-6-40 19-71t65-31Z"/>
      <glyph unicode="&#xc6;" glyph-name="gid14" horiz-adv-x="2032" d="M-73,0L890,1446H2046l-38-243H1344l-52-355h577l-36-240H1256l-53-364h685L1852,0H837l50,338H435L216,0H-73ZM582,590H924l99,665L582,590Z"/>
      <glyph unicode="&#xc7;" glyph-name="gid20" horiz-adv-x="1412" d="M590-425q-61,0-116.5,12T373-371l54,98q28-19 64-34t79-15q46,0 73.5,16.5T675-260q6,39-27.5,60T523-178q-13,0-17,3.5t4,15.5L606,10H733L673-107q73-2 112.5-26t53-59.5T848-263q-8-51-46-87.5T708-406T590-425ZM658-20Q477-20 354,59.5t-183,226T121,633q8,168 59,318.5T325.5,1218t232,182T873,1466q157,0 270-62t173.5-174.5T1376,967H1073q-2,75-30,133.5t-81.5,92T827,1226q-99,0-170.5-51T538,1037.5T466.5,843T435,620q-13-208 52.5-304T685,220q80,0 143.5,38.5T937,360.5T1006,500h303q-28-103-77.5-196.5T1104.5,137T917.5,22T658-20Z"/>
      <glyph unicode="&#xc8;" glyph-name="gid36" horiz-adv-x="1255" d="M89,0L304,1446h968l-38-246H557L506,849h585l-35-241H468L415,249l689-1L1066,0H89ZM671,1567L363,1858H662l220-291H671Z"/>
      <glyph unicode="&#xc9;" glyph-name="gid29" horiz-adv-x="1255" d="M89,0L304,1446h968l-38-246H557L506,849h585l-35-241H468L415,249l689-1L1066,0H89ZM670,1567l241,291h303L883,1567H670Z"/>
      <glyph unicode="&#xca;" glyph-name="gid32" horiz-adv-x="1255" d="M89,0L304,1446h968l-38-246H557L506,849h585l-35-241H468L415,249l689-1L1066,0H89ZM429,1567l267,259H895l244-259H913L791,1707L643,1567H429Z"/>
      <glyph unicode="&#xcb;" glyph-name="gid34" horiz-adv-x="1255" d="M89,0L304,1446h968l-38-246H557L506,849h585l-35-241H468L415,249l689-1L1066,0H89ZM873,1620l36,238h273l-35-238H873Zm-441,0l36,238H741l-35-238H432Z"/>
      <glyph unicode="&#xcc;" glyph-name="gid57" horiz-adv-x="623" d="M89,0L303,1446H592L379,0H89ZM353,1567L45,1858H344l220-291H353Z"/>
      <glyph unicode="&#xcd;" glyph-name="gid51" horiz-adv-x="623" d="M89,0L303,1446H592L379,0H89ZM352,1567l241,291H896L565,1567H352Z"/>
      <glyph unicode="&#xce;" glyph-name="gid53" horiz-adv-x="623" d="M89,0L303,1446H592L379,0H89Zm22,1567l267,259H577l244-259H595L473,1707L325,1567H111Z"/>
      <glyph unicode="&#xcf;" glyph-name="gid55" horiz-adv-x="623" d="M89,0L303,1446H592L379,0H89ZM555,1620l36,238H864l-35-238H555Zm-441,0l36,238H423l-35-238H114Z"/>
      <glyph unicode="&#xd0;" glyph-name="gid24" horiz-adv-x="1529" d="M87,608l27,214H892L865,608H87ZM200,0L407,1446q11,0 69-0.5t132-0.5q143,0 272.5-11.5t237-44T1304,1294t122.5-165.5T1470,875q0-86-15-183.5T1404.5,496T1307,309T1151,150.5T926.5,40.5T622,0H200ZM527,236H650q125,0 222,49.5T1036,422t101,201.5T1171,870q0,121-42.5,195.5T1005,1175t-195,35H670L527,236Z"/>
      <glyph unicode="&#xd1;" glyph-name="gid79" horiz-adv-x="1546" d="M89,0L304,1446H591l494-957l140,957h290L1300,0H1040L525,995L379,0H89ZM645,1608l-24,141q42,39 89,65.5T824,1841q54,0 101-15t90-30.5t88-15.5q50,0 94,22.5t77,47.5l13-163q-34-25-88.5-48T1078,1616q-54,0-96.5,14T898,1658.5T808,1673t-84.5-16T645,1608Z"/>
      <glyph unicode="&#xd2;" glyph-name="gid86" horiz-adv-x="1491" d="M666-20Q466-20 333.5,69t-187,254.5T126,719q35,231 140,398.5t264.5,258T886,1466t327.5-90T1400,1118.5T1421,720q-34-229-137.5-395T1022,69.5T666-20Zm36,240q101,0 183,50.5T1023.5,430T1106,716q27,180 2.5,292.5t-91,165T850,1226q-151,0-260-120T441,716q-26-176-0.5-285.5t93-160T702,220Zm72,1347L466,1858H765l220-291H774Z"/>
      <glyph unicode="&#xd3;" glyph-name="gid81" horiz-adv-x="1491" d="M666-20Q466-20 333.5,69t-187,254.5T126,719q35,231 140,398.5t264.5,258T886,1466t327.5-90T1400,1118.5T1421,720q-34-229-137.5-395T1022,69.5T666-20Zm36,240q101,0 183,50.5T1023.5,430T1106,716q27,180 2.5,292.5t-91,165T850,1226q-151,0-260-120T441,716q-26-176-0.5-285.5t93-160T702,220Zm71,1347l241,291h303L986,1567H773Z"/>
      <glyph unicode="&#xd4;" glyph-name="gid83" horiz-adv-x="1491" d="M666-20Q466-20 333.5,69t-187,254.5T126,719q35,231 140,398.5t264.5,258T886,1466t327.5-90T1400,1118.5T1421,720q-34-229-137.5-395T1022,69.5T666-20Zm36,240q101,0 183,50.5T1023.5,430T1106,716q27,180 2.5,292.5t-91,165T850,1226q-151,0-260-120T441,716q-26-176-0.5-285.5t93-160T702,220ZM532,1567l267,259H998l244-259H1016L894,1707L746,1567H532Z"/>
      <glyph unicode="&#xd5;" glyph-name="gid94" horiz-adv-x="1491" d="M666-20Q466-20 333.5,69t-187,254.5T126,719q35,231 140,398.5t264.5,258T886,1466t327.5-90T1400,1118.5T1421,720q-34-229-137.5-395T1022,69.5T666-20Zm36,240q101,0 183,50.5T1023.5,430T1106,716q27,180 2.5,292.5t-91,165T850,1226q-151,0-260-120T441,716q-26-176-0.5-285.5t93-160T702,220ZM607,1608l-24,141q42,39 89,65.5T786,1841q54,0 101-15t90-30.5t88-15.5q50,0 94,22.5t77,47.5l13-163q-34-25-88.5-48T1040,1616q-54,0-96.5,14T860,1658.5T770,1673t-84.5-16T607,1608Z"/>
      <glyph unicode="&#xd6;" glyph-name="gid85" horiz-adv-x="1491" d="M666-20Q466-20 333.5,69t-187,254.5T126,719q35,231 140,398.5t264.5,258T886,1466t327.5-90T1400,1118.5T1421,720q-34-229-137.5-395T1022,69.5T666-20Zm36,240q101,0 183,50.5T1023.5,430T1106,716q27,180 2.5,292.5t-91,165T850,1226q-151,0-260-120T441,716q-26-176-0.5-285.5t93-160T702,220ZM976,1620l36,238h273l-35-238H976Zm-441,0l36,238H844l-35-238H535Z"/>
      <glyph unicode="&#xd7;" glyph-name="gid437" horiz-adv-x="1133" d="M226,269L103,420l860,768l126-151L226,269Zm597,0L192,1036l170,151L995,420L823,269Z"/>
      <glyph unicode="&#xd8;" glyph-name="gid92" horiz-adv-x="1521" d="M91-27L-16,104L171,276q-37,87-46.5,198.5T134,719q34,231 139,398.5t264,258T893,1466q133,0 235-41t172-120l183,166l104-129l-195-182q37-87 46.5-198T1429,720q-34-229-137.5-395t-262-255.5T673-20Q542-20 440.5,20T268,133L91-27ZM710,215q127,0 210,86t125,269q20,79 30,159.5T1087,897L496,333q57-118 214-118ZM475,538l594,566q-27,67-79.5,98.5T859,1234q-133,0-219.5-96T509,840q-17-75-25-150.5T475,538Z"/>
      <glyph unicode="&#xd9;" glyph-name="gid126" horiz-adv-x="1425" d="M646-20Q439-20 325.5,50.5T176.5,251T168,561l130,885H593L458,539q-16-108 8-176.5T546.5,261T683,228q119,0 207,74t111,237l133,907h292L1295,551q-27-175-101.5-303.5T985,49.5T646-20ZM766,1567L458,1858H757l220-291H766Z"/>
      <glyph unicode="&#xda;" glyph-name="gid121" horiz-adv-x="1425" d="M646-20Q439-20 325.5,50.5T176.5,251T168,561l130,885H593L458,539q-16-108 8-176.5T546.5,261T683,228q119,0 207,74t111,237l133,907h292L1295,551q-27-175-101.5-303.5T985,49.5T646-20ZM765,1567l241,291h303L978,1567H765Z"/>
      <glyph unicode="&#xdb;" glyph-name="gid123" horiz-adv-x="1425" d="M646-20Q439-20 325.5,50.5T176.5,251T168,561l130,885H593L458,539q-16-108 8-176.5T546.5,261T683,228q119,0 207,74t111,237l133,907h292L1295,551q-27-175-101.5-303.5T985,49.5T646-20ZM524,1567l267,259H990l244-259H1008L886,1707L738,1567H524Z"/>
      <glyph unicode="&#xdc;" glyph-name="gid125" horiz-adv-x="1425" d="M646-20Q439-20 325.5,50.5T176.5,251T168,561l130,885H593L458,539q-16-108 8-176.5T546.5,261T683,228q119,0 207,74t111,237l133,907h292L1295,551q-27-175-101.5-303.5T985,49.5T646-20ZM968,1620l36,238h273l-35-238H968Zm-441,0l36,238H836l-35-238H527Z"/>
      <glyph unicode="&#xdd;" glyph-name="gid142" horiz-adv-x="1304" d="M424,0l88,609L150,1446H462L697,860l402,586h316L802,608L711,0H424ZM672,1568l241,291h303L885,1568H672Z"/>
      <glyph unicode="&#xde;" glyph-name="gid97" horiz-adv-x="1339" d="M89,0L293,1446H584l-39-277H831q158,0 273-47.5t171.5-143T1311,737q-20-143-103-240T996.5,350T712,300H423L381,0H89ZM457,541H746q59,0 115.5,20.5t97,64T1008,737q10,65-19,107.5t-80.5,63T796,928l-285,1L457,541Z"/>
      <glyph unicode="&#xdf;" glyph-name="gid270" horiz-adv-x="1171" d="M628-20Q552-20 491.5-1.5T391,47L497,227q27-20 61-39.5T645,168q68,0 118.5,35T823,306q7,48-12,77t-56.5,50.5T668,477q-50,24-90.5,57t-61,82T505,736q12,76 52.5,127T658,957q34,27 66,52.5t54.5,55T807,1135q7,53-24.5,87.5T679,1257q-85,0-143-57.5T465,1044L319,0H54L191,989q16,90 53.5,172.5t101,146.5t156,101T719,1446q124,0 202.5-36.5T1033,1306t20-156q-9-72-43-123.5T917,936T773,860q-30-16-43.5-27T713,804q-2-19 8-28.5T760,756q60-30 120.5-63.5T988,613t70.5-112.5T1069,337q-17-117-77.5-196.5t-154-120T628-20Z"/>
      <glyph unicode="&#xe0;" glyph-name="gid160" horiz-adv-x="1140" d="M355-20q-97,0-168.5,37T80.5,124.5T60,296Q85,466 222.5,554.5T627,646l124,2l9,62q10,73-28,110.5T617,857q-60-1-121.5-31T403,726H164q21,107 91,180t174.5,110.5T660,1054q154,0 242-41t119.5-114.5T1039,727L931,0H690l1,175Q623,63 541,21.5T355-20ZM479,172q39,0 76.5,14.5t69,39T678,281t27,64l23,153l-100-2q-69-1-131.5-17.5T391,425T338,325q-9-72 32-112.5T479,172Zm86,983L257,1446H556l220-291H565Z"/>
      <glyph unicode="&#xe1;" glyph-name="gid155" horiz-adv-x="1132" d="M347-20q-97,0-168.5,37T72.5,124.5T52,296Q77,466 214.5,554.5T619,646l124,2l9,62q10,73-28,110.5T609,857q-60-1-121.5-31T395,726H156q21,107 91,180t174.5,110.5T652,1054q154,0 242-41t119.5-114.5T1031,727L923,0H682l1,175Q615,63 533,21.5T347-20ZM471,172q39,0 76.5,14.5t69,39T670,281t27,64l23,153l-100-2q-69-1-131.5-17.5T383,425T330,325q-9-72 32-112.5T471,172Zm77,983l241,291h303L761,1155H548Z"/>
      <glyph unicode="&#xe2;" glyph-name="gid157" horiz-adv-x="1132" d="M347-20q-97,0-168.5,37T72.5,124.5T52,296Q77,466 214.5,554.5T619,646l124,2l9,62q10,73-28,110.5T609,857q-60-1-121.5-31T395,726H156q21,107 91,180t174.5,110.5T652,1054q154,0 242-41t119.5-114.5T1031,727L923,0H682l1,175Q615,63 533,21.5T347-20ZM471,172q39,0 76.5,14.5t69,39T670,281t27,64l23,153l-100-2q-69-1-131.5-17.5T383,425T330,325q-9-72 32-112.5T471,172ZM301,1155l267,259H767l244-259H785L663,1295L515,1155H301Z"/>
      <glyph unicode="&#xe3;" glyph-name="gid166" horiz-adv-x="1132" d="M347-20q-97,0-168.5,37T72.5,124.5T52,296Q77,466 214.5,554.5T619,646l124,2l9,62q10,73-28,110.5T609,857q-60-1-121.5-31T395,726H156q21,107 91,180t174.5,110.5T652,1054q154,0 242-41t119.5-114.5T1031,727L923,0H682l1,175Q615,63 533,21.5T347-20ZM471,172q39,0 76.5,14.5t69,39T670,281t27,64l23,153l-100-2q-69-1-131.5-17.5T383,425T330,325q-9-72 32-112.5T471,172ZM376,1196l-24,141q42,39 89,65.5T555,1429q54,0 101-15t90-30.5t88-15.5q50,0 94,22.5t77,47.5l13-163q-34-25-88.5-48T809,1204q-54,0-96.5,14T629,1246.5T539,1261t-84.5-16T376,1196Z"/>
      <glyph unicode="&#xe4;" glyph-name="gid159" horiz-adv-x="1132" d="M347-20q-97,0-168.5,37T72.5,124.5T52,296Q77,466 214.5,554.5T619,646l124,2l9,62q10,73-28,110.5T609,857q-60-1-121.5-31T395,726H156q21,107 91,180t174.5,110.5T652,1054q154,0 242-41t119.5-114.5T1031,727L923,0H682l1,175Q615,63 533,21.5T347-20ZM471,172q39,0 76.5,14.5t69,39T670,281t27,64l23,153l-100-2q-69-1-131.5-17.5T383,425T330,325q-9-72 32-112.5T471,172ZM742,1204l36,238h273l-35-238H742Zm-441,0l36,238H610l-35-238H301Z"/>
      <glyph unicode="&#xe5;" glyph-name="gid164" horiz-adv-x="1132" d="M870,1500l-79-142q50-23 76-71t16-111q-13-89-80-144T650,977q-84,0-134,56.5T479,1180q10,69 58.5,119.5T652,1366l51,134H870Zm-95-326q6,42-17.5,70.5T692,1273q-38,0-71.5-28.5T581,1174q-6-40 19-71.5t64-31.5q40,0 72.5,31.5T775,1174ZM347-20q-97,0-168.5,37T72.5,124.5T52,296Q77,466 214.5,554.5T619,646l124,2l9,62q10,73-28,110.5T609,857q-60-1-121.5-31T395,726H156q21,107 91,180t174.5,110.5T652,1054q154,0 242-41t119.5-114.5T1031,727L923,0H682l1,175Q615,63 533,21.5T347-20ZM471,172q39,0 76.5,14.5t69,39T670,281t27,64l23,153l-100-2q-69-1-131.5-17.5T383,425T330,325q-9-72 32-112.5T471,172Z"/>
      <glyph unicode="&#xe6;" glyph-name="gid167" horiz-adv-x="1788" d="M349-20q-96,0-168,37T73.5,124.5T52,296Q76,466 213,554.5T619,646l125,2l8,62q10,73-27.5,110.5T608,857q-60-1-120.5-31T396,726H155q20,107 89.5,180T418,1016.5T649,1054q128,0 211-34.5T981,923q65,63 149,97t182,34q155,0 249.5-66.5t130.5-185T1705,529l-12-79H1020q-13-79 3-137.5t59.5-90T1193,191q72,0 130.5,32T1415,328h259q-33-110-113-188T1377,21T1167-20q-139,0-238.5,58T782,202q-34-70-94.5-119.5T542,6.5T349-20ZM474,172q60,0 108.5,28.5t81,72T703,360l19,138l-101-2q-69-1-132-17.5T383,425T331,325q-10-72 32-112.5T474,172Zm570,452h406q9,62-5.5,114t-55,82T1281,850q-64,0-114-32.5T1084.5,733T1044,624Z"/>
      <glyph unicode="&#xe7;" glyph-name="gid173" horiz-adv-x="1071" d="M416-425q-62,0-117.5,12T198-371l55,98q27-19 63-34t79-15q46,0 73.5,16.5T501-260q6,39-28,60T348-178q-13,0-17,3.5t4,15.5L431,10H558L498-107q73-2 112.5-26t53-59.5T673-263q-8-51-46-87.5T533-406T416-425ZM483-20Q342-20 242,44T96.5,227.5T75,513Q99,673 177.5,795t198,190.5T641,1054q128,0 212.5-53T977,858t30-201H767q0,41-15,81.5t-49,67T611,832q-99,0-171.5-78.5T343,515q-22-151 26-239.5T521,187q58,0 100,29t68.5,69.5T726,361H960q-21-107-87-193.5T707,30.5T483-20Z"/>
      <glyph unicode="&#xe8;" glyph-name="gid189" horiz-adv-x="1126" d="M506-20Q357-20 253,44.5T103.5,227T82,505q22,155 98.5,279.5T377,981.5T651,1054q155,0 249.5-66.5t130.5-185T1044,529l-13-79H359q-13-79 3-137.5t59.5-90T532,191q72,0 130.5,32T753,328h260Q980,218 900,140T716,21T506-20ZM382,624H788q10,62-5,114t-55,82T620,850q-64,0-114.5-32.5T423,733T382,624Zm171,531L245,1446H544l220-291H553Z"/>
      <glyph unicode="&#xe9;" glyph-name="gid182" horiz-adv-x="1126" d="M506-20Q357-20 253,44.5T103.5,227T82,505q22,155 98.5,279.5T377,981.5T651,1054q155,0 249.5-66.5t130.5-185T1044,529l-13-79H359q-13-79 3-137.5t59.5-90T532,191q72,0 130.5,32T753,328h260Q980,218 900,140T716,21T506-20ZM382,624H788q10,62-5,114t-55,82T620,850q-64,0-114.5-32.5T423,733T382,624Zm169,531l241,291h303L764,1155H551Z"/>
      <glyph unicode="&#xea;" glyph-name="gid185" horiz-adv-x="1126" d="M506-20Q357-20 253,44.5T103.5,227T82,505q22,155 98.5,279.5T377,981.5T651,1054q155,0 249.5-66.5t130.5-185T1044,529l-13-79H359q-13-79 3-137.5t59.5-90T532,191q72,0 130.5,32T753,328h260Q980,218 900,140T716,21T506-20ZM382,624H788q10,62-5,114t-55,82T620,850q-64,0-114.5-32.5T423,733T382,624Zm-72,531l267,259H776l244-259H794L672,1295L524,1155H310Z"/>
      <glyph unicode="&#xeb;" glyph-name="gid187" horiz-adv-x="1126" d="M506-20Q357-20 253,44.5T103.5,227T82,505q22,155 98.5,279.5T377,981.5T651,1054q155,0 249.5-66.5t130.5-185T1044,529l-13-79H359q-13-79 3-137.5t59.5-90T532,191q72,0 130.5,32T753,328h260Q980,218 900,140T716,21T506-20ZM382,624H788q10,62-5,114t-55,82T620,850q-64,0-114.5-32.5T423,733T382,624Zm372,584l36,238h273l-35-238H754Zm-441,0l36,238H622l-35-238H313Z"/>
      <glyph unicode="&#xec;" glyph-name="gid212" horiz-adv-x="548" d="M52,0L206,1034H496L342,0H52ZM262,1155L51,1446H331l137-289l-206-2Z"/>
      <glyph unicode="&#xed;" glyph-name="gid206" horiz-adv-x="548" d="M52,0L206,1034H496L342,0H52ZM470,1155l-215,2l180,289H724L470,1155Z"/>
      <glyph unicode="&#xee;" glyph-name="gid208" horiz-adv-x="548" d="M52,0L206,1034H496L342,0H52ZM16,1155l267,259H482l244-259H500L378,1295L230,1155H16Z"/>
      <glyph unicode="&#xef;" glyph-name="gid210" horiz-adv-x="548" d="M52,0L206,1034H496L342,0H52ZM460,1208l36,238H769l-35-238H460Zm-441,0l36,238H328l-35-238H19Z"/>
      <glyph unicode="&#xf0;" glyph-name="gid177" horiz-adv-x="1134" d="M504-20Q370-20 272.5,36.5t-150,158T70,432q0,89 28.5,191.5t92,194.5T358,968.5T612,1027q147,0 224-78t87-221L763,896q-7,104-48,203T608,1294T460,1481H692q112-85 197-207.5T1022.5,1001T1071,683q0-126-31.5-250.5T940,206T764.5,42T504-20Zm25,217q73,0 121.5,40.5T728,341t41,132.5T781,599q0,108-43.5,164T610,819q-73,0-122-39t-77.5-99.5T369,552.5T356,428q0-105 43-168t130-63ZM393,1104l-21,127l720,205l21-127L393,1104Z"/>
      <glyph unicode="&#xf1;" glyph-name="gid236" horiz-adv-x="1169" d="M52,0L207,1034H489L471,901q35,38 76.5,70t98.5,52t136,20q92,0 165.5-43.5t111.5-123T1081,689L978,0H689l97,654q12,77-30.5,118.5T647,814q-46,0-91-16.5T479.5,749T441,669L341,0H52ZM411,1196l-24,141q42,39 89,65.5T590,1429q54,0 101-15t90-30.5t88-15.5q50,0 94,22.5t77,47.5l13-163q-34-25-88.5-48T844,1204q-54,0-96.5,14T664,1246.5T574,1261t-84.5-16T411,1196Z"/>
      <glyph unicode="&#xf2;" glyph-name="gid243" horiz-adv-x="1127" d="M485-20Q337-20 237,45T94.5,229T75,511Q99,674 176.5,796T374,986t268,68q150,0 249.5-66.5t141-188.5T1050,511q-23-156-98.5-275.5T757.5,48T485-20Zm35,217q73,0 124.5,45T727,360.5T770,521q11,82 2.5,155T726,794T610,839q-75,0-127-42.5t-82-115T359,521q-12-81-3.5-155.5t47-121.5T520,197Zm13,958L225,1446H524l220-291H533Z"/>
      <glyph unicode="&#xf3;" glyph-name="gid238" horiz-adv-x="1127" d="M485-20Q337-20 237,45T94.5,229T75,511Q99,674 176.5,796T374,986t268,68q150,0 249.5-66.5t141-188.5T1050,511q-23-156-98.5-275.5T757.5,48T485-20Zm35,217q73,0 124.5,45T727,360.5T770,521q11,82 2.5,155T726,794T610,839q-75,0-127-42.5t-82-115T359,521q-12-81-3.5-155.5t47-121.5T520,197Zm11,958l241,291h303L744,1155H531Z"/>
      <glyph unicode="&#xf4;" glyph-name="gid240" horiz-adv-x="1127" d="M485-20Q337-20 237,45T94.5,229T75,511Q99,674 176.5,796T374,986t268,68q150,0 249.5-66.5t141-188.5T1050,511q-23-156-98.5-275.5T757.5,48T485-20Zm35,217q73,0 124.5,45T727,360.5T770,521q11,82 2.5,155T726,794T610,839q-75,0-127-42.5t-82-115T359,521q-12-81-3.5-155.5t47-121.5T520,197ZM290,1155l267,259H756l244-259H774L652,1295L504,1155H290Z"/>
      <glyph unicode="&#xf5;" glyph-name="gid251" horiz-adv-x="1127" d="M485-20Q337-20 237,45T94.5,229T75,511Q99,674 176.5,796T374,986t268,68q150,0 249.5-66.5t141-188.5T1050,511q-23-156-98.5-275.5T757.5,48T485-20Zm35,217q73,0 124.5,45T727,360.5T770,521q11,82 2.5,155T726,794T610,839q-75,0-127-42.5t-82-115T359,521q-12-81-3.5-155.5t47-121.5T520,197ZM365,1196l-24,141q42,39 89,65.5T544,1429q54,0 101-15t90-30.5t88-15.5q50,0 94,22.5t77,47.5l13-163q-34-25-88.5-48T798,1204q-54,0-96.5,14T618,1246.5T528,1261t-84.5-16T365,1196Z"/>
      <glyph unicode="&#xf6;" glyph-name="gid242" horiz-adv-x="1127" d="M485-20Q337-20 237,45T94.5,229T75,511Q99,674 176.5,796T374,986t268,68q150,0 249.5-66.5t141-188.5T1050,511q-23-156-98.5-275.5T757.5,48T485-20Zm35,217q73,0 124.5,45T727,360.5T770,521q11,82 2.5,155T726,794T610,839q-75,0-127-42.5t-82-115T359,521q-12-81-3.5-155.5t47-121.5T520,197ZM735,1208l36,238h273l-35-238H735Zm-441,0l36,238H603l-35-238H294Z"/>
      <glyph unicode="&#xf7;" glyph-name="gid438" horiz-adv-x="1155" d="M131,621l32,213h920l-32-213H131ZM378,187l44,293H721L678,187H378ZM497,975l43,293H839L795,975H497Z"/>
      <glyph unicode="&#xf8;" glyph-name="gid249" horiz-adv-x="1129" d="M87-15L-10,88l1013,958l95-102L87-15Zm386-5Q326-20 226,45T83,229T64,511Q87,674 165,796T363,986t268,68q150,0 249-66.5T1021,799t18-288q-23-156-98.5-275.5T746.5,48T473-20Zm36,217q73,0 124,45t82.5,118.5T758,521q12,82 3.5,155T715,794T599,839q-75,0-127-42.5t-82.5-115T347,521q-11-81-2.5-155.5T391,244t118-47Z"/>
      <glyph unicode="&#xf9;" glyph-name="gid284" horiz-adv-x="1173" d="M422-20Q352-20 287,2T172.5,67T98,173T85,319l100,715H476L380,356q-10-72 28.5-118T535,192q82,0 136.5,44.5T737,361l95,673h288L975,0H756l-4,205q-31-91-86.5-139.5t-120-67T422-20ZM557,1155L249,1446H548l220-291H557Z"/>
      <glyph unicode="&#xfa;" glyph-name="gid278" horiz-adv-x="1173" d="M422-20Q352-20 287,2T172.5,67T98,173T85,319l100,715H476L380,356q-10-72 28.5-118T535,192q82,0 136.5,44.5T737,361l95,673h288L975,0H756l-4,205q-31-91-86.5-139.5t-120-67T422-20ZM556,1155l241,291h303L769,1155H556Z"/>
      <glyph unicode="&#xfb;" glyph-name="gid281" horiz-adv-x="1173" d="M422-20Q352-20 287,2T172.5,67T98,173T85,319l100,715H476L380,356q-10-72 28.5-118T535,192q82,0 136.5,44.5T737,361l95,673h288L975,0H756l-4,205q-31-91-86.5-139.5t-120-67T422-20ZM315,1155l267,259H781l244-259H799L677,1295L529,1155H315Z"/>
      <glyph unicode="&#xfc;" glyph-name="gid283" horiz-adv-x="1173" d="M422-20Q352-20 287,2T172.5,67T98,173T85,319l100,715H476L380,356q-10-72 28.5-118T535,192q82,0 136.5,44.5T737,361l95,673h288L975,0H756l-4,205q-31-91-86.5-139.5t-120-67T422-20ZM759,1208l36,238h273l-35-238H759Zm-441,0l36,238H627l-35-238H318Z"/>
      <glyph unicode="&#xfd;" glyph-name="gid300" horiz-adv-x="1099" d="M152-330Q49-330 9-312.5T-31-295L-4-109l99-4q87-5 132.5,13.5t64,44.5T318-14l26,57L100,1034H385L523,360l341,674h282L588-6Q514-138 444-208T302.5-304T152-330ZM518,1155l241,291h303L731,1155H518Z"/>
      <glyph unicode="&#xfe;" glyph-name="gid254" horiz-adv-x="1190" d="M7-322L269,1446H559L480,903q38,37 83,71.5t104.5,57T804,1054q111,0 190.5-57T1108,822.5t7-297.5q-27-187-98-307.5T845.5,38.5T630-20Q556-20 497,4.5T391,79q-19,19-25,17.5T355,68L297-322H7ZM551,165q67,0 121,36.5t93,117T824,531q18,126 2,199.5T766.5,836T660,868q-54,0-99.5-23.5t-75.5-60T449,709L385,265q30-44 69.5-72T551,165Z"/>
      <glyph unicode="&#xff;" glyph-name="gid302" horiz-adv-x="1099" d="M152-330Q49-330 9-312.5T-31-295L-4-109l99-4q87-5 132.5,13.5t64,44.5T318-14l26,57L100,1034H385L523,360l341,674h282L588-6Q514-138 444-208T302.5-304T152-330ZM721,1208l36,238h273l-35-238H721Zm-441,0l36,238H589l-35-238H280Z"/>
      <glyph unicode="&#x2013;" glyph-name="gid388" horiz-adv-x="1163" d="M102,390l32,213l921,1l-32-213l-921-1Z"/>
      <glyph unicode="&#x2014;" glyph-name="gid389" horiz-adv-x="2298" d="M342,390l31,213l1576,1l-30-213L342,390Z"/>
      <glyph unicode="&#x2018;" glyph-name="gid396" horiz-adv-x="528" d="M130,896l37,250l247,317H521L366,1188l100-9L423,896H130Z"/>
      <glyph unicode="&#x2019;" glyph-name="gid397" horiz-adv-x="526" d="M152,884l155,272l-100,10l43,280H543l-37-247L259,884H152Z"/>
      <glyph unicode="&#x201a;" glyph-name="gid392" horiz-adv-x="574" d="M-18-277L142-5L37,4L80,287H391L353,38L96-277H-18Z"/>
      <glyph unicode="&#x201c;" glyph-name="gid394" horiz-adv-x="961" d="M565,910l38,250l246,318H957L802,1203l100-10L859,910H565Zm-433,0l37,250l247,318H524L368,1203l100-10L426,910H132Z"/>
      <glyph unicode="&#x201d;" glyph-name="gid395" horiz-adv-x="956" d="M581,884l155,272l-100,10l43,280H972l-37-247L688,884H581Zm-429,0l155,272l-100,10l43,280H543l-37-247L259,884H152Z"/>
      <glyph unicode="&#x201e;" glyph-name="gid393" horiz-adv-x="1017" d="M425-277L585-5L480,4l43,283H834L796,38L539-277H425Zm-443,0L142-5L37,4L80,287H391L353,38L96-277H-18Z"/>
      <glyph unicode="&#x2022;" glyph-name="gid373" horiz-adv-x="712" d="M376,484q-69,0-126,34t-91,91.5T125,736t34,125.5T250,952t126,34t126-34t91-90.5T627,736T593,609.5T502,518T376,484Z"/>
      <glyph unicode="&#x2039;" glyph-name="gid400" horiz-adv-x="611" d="M272,129L99,502L386,891H539L325,502L425,129H272Z"/>
      <glyph unicode="&#x203a;" glyph-name="gid401" horiz-adv-x="610" d="M71,129L282,502L184,891H337L507,502L222,129H71Z"/>
    </font>
</defs>
</svg>
