<?xml version="1.0" standalone="no"?>
<!DOCTYPE svg PUBLIC "-//W3C//DTD SVG 1.1//EN" "http://www.w3.org/Graphics/SVG/1.1/DTD/svg11.dtd">
<svg xmlns="http://www.w3.org/2000/svg">
  <defs>
    <font id="PublicSans" horiz-adv-x="1162">
      <font-face font-family="Public Sans Thin" units-per-em="2000" panose-1="0 0 0 0 0 0 0 0 0 0" ascent="1900" descent="-450" alphabetic="0"/>
      <glyph unicode=" " glyph-name="gid404" horiz-adv-x="451"/>
      <glyph unicode="!" glyph-name="gid368" horiz-adv-x="564" d="M183,446L101,1446H443L366,446H183ZM112,0V312H431V0H112Z"/>
      <glyph unicode="&quot;" glyph-name="gid402" horiz-adv-x="959" d="M625,886l-76,560H847L770,886H625Zm-437,0l-76,560H410L333,886H188Z"/>
      <glyph unicode="#" glyph-name="gid375" horiz-adv-x="1232" d="M796-5L642,16L856,1449l153-15L796-5ZM56,450V602H1099V450H56ZM371-5L219,16L433,1449l151-15L371-5ZM120,860v152H1163V860H120Z"/>
      <glyph unicode="$" glyph-name="gid410" horiz-adv-x="1361" d="M707-20Q447-20 285,84.5T99,407l304,6q24-99 103.5-150.5T706,211q72,0 127.5,23.5t87.5,64T953,391q0,80-51,119.5T745,574L508,625Q343,658 243.5,756.5T142,1021q-1,136 73.5,235.5t203,153.5T707,1464q164,0 283.5-58.5t184-157T1237,1031l-295-5q-14,96-64,151t-166,55q-60,0-107-13t-81-36.5T472.5,1127T455,1055q0-63 42.5-99.5T658,888l233-57q197-47 284.5-161T1263,393q0-125-68.5-218T1001,31T707-20ZM577-191V69H829V-191H577Zm5,1584v260H835V1393H582Z"/>
      <glyph unicode="%" glyph-name="gid447" horiz-adv-x="1878" d="M345-8l977,1470h169L519-8H345ZM459,648q-104,0-187,54.5T141,849T93,1054q0,115 48.5,209T273,1412.5T459,1468t185-55.5T774,1263t48-209q0-113-47-205T645.5,702.5T459,648Zm-2,148q79,0 115,65.5T608,1054q0,131-37,199t-114,68q-76,0-113-68.5T307,1054q0-126 36.5-192T457,796ZM1408-20q-105,0-188,54T1089,180.5T1041,388t48.5,209t132,149.5T1408,802t185.5-55.5T1724,597t48-209t-47-207.5T1595.5,34T1408-20Zm-2,150q78,0 114,65.5T1556,386q0,131-37,199t-113,68t-112.5-68.5T1257,386q0-124 36-190t113-66Z"/>
      <glyph unicode="&amp;" glyph-name="gid449" horiz-adv-x="1567" d="M560-10Q401-10 297.5,37.5T144,169T94,363q0,99 40.5,175.5T256,679.5T458,808q-51,57-90,106t-61,100.5T285,1130q0,96 54,172.5t150,121T711,1468q123,0 223.5-39.5t160-110T1154,1154q0-48-20-96.5t-59.5-97T975,864T834,768l226-266q14,31 34,80t38,110.5T1158,821h299q-25-89-69.5-173t-95-162.5T1198,334L1484,0H1149L1025,142Q909,57 788,23.5T560-10Zm72,223q58,0 129,25.5T885,313L601,642q-80-45-135.5-111.5T421,379q6-54 38.5-91T538,232t94-19Zm81,702q72,45 112.5,82.5T882,1070t16,71q0,53-24.5,86.5t-64,49T725,1290q-71-2-111.5-42.5T573,1150q0-33 14-67t36.5-65.5T672,958l41-43Z"/>
      <glyph unicode="&apos;" glyph-name="gid403" horiz-adv-x="522" d="M188,886l-76,560H410L333,886H188Z"/>
      <glyph unicode="(" glyph-name="gid380" horiz-adv-x="666" d="M397-286Q314-146 251-9.5T153.5,274T119,592q0,249 78.5,476.5T403,1482H610q-104-195-167-424.5T380,590q0-227 57-438.5T602-286H397Z"/>
      <glyph unicode=")" glyph-name="gid381" horiz-adv-x="673" d="M31-286Q140-60 197,151.5T254,590q0,238-63,467.5T24,1482H230q128-186 206.5-413.5T515,592q0-171-35-318T382.5-9.5T236-286H31Z"/>
      <glyph unicode="*" glyph-name="gid374" horiz-adv-x="946" d="M301,649L144,758l207,247L57,1087l62,170l277-121l-22,310H565l-27-311l283,124l54-170l-286-83L791,764L634,654L468,928L301,649Z"/>
      <glyph unicode="+" glyph-name="gid435" horiz-adv-x="1177" d="M483,256v945H696V256H483ZM116,621V834h945V621H116Z"/>
      <glyph unicode="," glyph-name="gid364" horiz-adv-x="554" d="M94-280L210-8L108,1V284H403V35L202-280H94Z"/>
      <glyph unicode="-" glyph-name="gid386" horiz-adv-x="786" d="M120,408V621H666V409l-546-1Z"/>
      <glyph unicode="." glyph-name="gid363" horiz-adv-x="539" d="M99,0V318H419V0H99Z"/>
      <glyph unicode="/" glyph-name="gid376" horiz-adv-x="762" d="M23-37L529,1446H732L227-37H23Z"/>
      <glyph unicode="0" glyph-name="gid316" horiz-adv-x="1289" d="M646-22Q383-22 235.5,169T88,719q0,240 68,407t193,253.5T646,1466q258,0 407-192.5T1202,720q0-359-147-550.5T646-22Zm0,239q129,0 189,115.5T895,719q0,277-61,397T645,1236T454.5,1115T392,719q0-270 62-386T646,217Z"/>
      <glyph unicode="1" glyph-name="gid317" horiz-adv-x="856" d="M344,0V1083H86v165q124,0 200.5,23.5t114.5,68T446,1446H640V0H344Z"/>
      <glyph unicode="2" glyph-name="gid318" horiz-adv-x="1270" d="M113,0V144v74q0,110 41,190.5t108.5,140T410.5,653T572,738t148.5,80.5T829,909t41,118q0,87-60.5,142T644,1224q-109,0-185-63T365,971H86q2,138 64.5,250.5T338,1400t314,66q162,0 279.5-55T1113,1258t64-229q0-109-40-188T1031,706T886,608T728.5,530T584,456.5T478,372T438,259V246h737V0H113Z"/>
      <glyph unicode="3" glyph-name="gid319" horiz-adv-x="1330" d="M640-22Q466-21 343.5,35.5T155.5,197T88,447H369q21-123 96-178t178-55q90,0 154.5,26t99,72.5T931,419q0,62-35.5,107T797,596.5T653,624l-138,5V861l124,7q78,3 136,29t90.5,69.5T898,1065q0,53-33,92t-91,61t-133,22q-69,0-127-23t-95-75.5T376,1001H97q0,156 73.5,259T369,1414.5T647,1466q162,0 288.5-42T1135,1296t73-218q0-107-62-188.5T944,760q80-22 148-67t109-115t41-168q0-106-47-187T1065,87T873,5T640-22Z"/>
      <glyph unicode="4" glyph-name="gid320" horiz-adv-x="1312" d="M751,0l1,320H86V560l659,886h287V565h223V320H1032V0H751ZM356,565H752v530L356,565Z"/>
      <glyph unicode="5" glyph-name="gid321" horiz-adv-x="1350" d="M698-22Q556-22 434,22T223,142.5T88,318L316,453q39-68 88-122.5t113.5-86T668,213q130,0 209,69t79,180q0,70-35.5,125.5T823,675T678,707q-44,0-83.5-7.5t-80-28T425,613q-14-6-19.5-6T385,614L173,712l66,734h929l-11-239H470L442,858q80,45 152.5,65T754,943q145,0 259.5-54.5T1195,729t67-256q0-153-69-264T997.5,38T698-22Z"/>
      <glyph unicode="6" glyph-name="gid322" horiz-adv-x="1321" d="M683-22Q499-22 365,67T159.5,317T88,695q0,238 72.5,411T369,1372.5T695,1466q136,0 251-49.5t187.5-143T1213,1049H946q-26,91-88,138.5T701,1235q-104,0-173-59t-99-165T413,764q33,48 84,81.5T611,897t131,18q147,0 257-54.5T1171,706t62-234q0-142-69.5-253.5T970,42.5T683-22ZM673,202q70,0 126.5,32.5T890,325t34,133q0,80-33,133t-89.5,79.5T674,697q-62,0-119.5-27.5t-94-70T424,513q-1-97 30.5-166.5t88-107T673,202Z"/>
      <glyph unicode="7" glyph-name="gid323" horiz-adv-x="1252" d="M349,0q8,88 40,222.5t93.5,298T637.5,860T861,1207H86v239H1166V1207q-69-86-138.5-203t-133-250T780,485T698,224T664,0H349Z"/>
      <glyph unicode="8" glyph-name="gid324" horiz-adv-x="1342" d="M670-21Q496-21 365,30.5T161,177T88,401q0,83 41,157.5t104,126T363,750q-89,42-151,120t-62,189q0,132 68.5,222.5T405,1419t265,47q149,0 266.5-47T1122,1281.5t68-222.5q0-111-61-189T979,750q66-14 129.5-65.5t104.5-126T1254,401q0-129-72.5-224T977.5,30.5T670-21Zm0,220q128,0 200.5,57.5T943,409q0,64-33,112.5T816,598T670,626q-83,0-144-28t-94-76.5T399,409q0-95 73-152.5T670,199Zm0,664q100,0 164.5,53.5T899,1065q0,94-65,149t-164,55q-98,0-163-55t-65-149q0-95 65-148.5T670,863Z"/>
      <glyph unicode="9" glyph-name="gid325" horiz-adv-x="1318" d="M619-22Q484-22 367,30T176,176.5T93,398H371q18-84 80-136.5T607,209q104,0 182.5,49t118,156T935,694q-28-53-77.5-92.5T742,540.5T595,519q-147,0-260.5,55.5t-178,158T92,976q0,142 68,253t190,174t286,63q184,0 317.5-87.5t205-248T1230,753q0-259-73.5-431.5T946,63.5T619-22Zm26,773q61,0 118.5,27.5T858,848t37,87q1,97-30.5,166.5t-88,106.5T645,1245q-69,0-123-32t-85-90T406,989q0-113 66-175.5T645,751Z"/>
      <glyph unicode=":" glyph-name="gid365" horiz-adv-x="539" d="M99,696v313H419V696H99ZM99,6V318H419V6H99Z"/>
      <glyph unicode=";" glyph-name="gid366" horiz-adv-x="557" d="M99-309L230,0H117V314H437V36L218-309H99Zm15,996v318H434V687H114Z"/>
      <glyph unicode="&lt;" glyph-name="gid441" horiz-adv-x="1155" d="M1038,208L116,565V807l922,360V916L437,684l601-225V208Z"/>
      <glyph unicode="=" glyph-name="gid439" horiz-adv-x="1177" d="M116,811v213l945,1V812l-945-1Zm0-457V567h945V354H116Z"/>
      <glyph unicode="&gt;" glyph-name="gid440" horiz-adv-x="1155" d="M117,208V459L719,684L116,916v251l923-360V565L117,208Z"/>
      <glyph unicode="?" glyph-name="gid370" horiz-adv-x="1069" d="M386,452q0,110 33.5,190.5t83,141T601,895t82.5,102.5T717,1111q0,71-53.5,113T529,1266q-54,0-105-23.5T332.5,1177T270,1078L22,1138q64,158 195.5,243T531,1466q143,0 250-46t166.5-123t59.5-171q0-98-39.5-167T871,835.5t-114.5-108T660,608.5T621,452H386ZM343,0V312H663V0H343Z"/>
      <glyph unicode="@" glyph-name="gid448" horiz-adv-x="1655" d="M838-220q-179,0-320.5,57T277.5-5.5T127.5,227T76,509q0,158 55.5,298.5t160.5,249t252.5,170T876,1288q132,0 257.5-36t226-112t160-194.5T1579,661q0-148-48.5-261.5T1395,222t-200-64q-85,0-128,29t-60,64q-7,12-11.5,11.5T982,251q-43-52-109-86.5T722,130q-83,0-150,42.5T465.5,293T427,475q0,120 48.5,223t137,165.5T821,926q82,0 130-29t82-71q4-5 9-3.5t6,10.5l11,43h168l-72-430q-12-71 6-97t54-26q47,0 90,36.5t70.5,109T1403,649q0,135-44.5,226.5t-119.5,147T1069.5,1103T876,1128q-160,0-277-49T406.5,944.5T293.5,748T256,512q0-135 42-242.5T419.5,86T613-29.5T870-69q90,0 152.5,16T1134-10t98,60l89-119q-76-61-201-106T838-220ZM773,307q57,0 103,33.5t74,87T983,541q5,62-13,109t-53,74t-81,27q-57,0-102.5-34.5T661,624T634,495q0-78 34.5-133T773,307Z"/>
      <glyph unicode="A" glyph-name="gid1" horiz-adv-x="1453" d="M55,0L572,1446H881L1398,0H1107L989,335H468L348,0H55ZM534,590H918L727,1165L534,590Z"/>
      <glyph unicode="B" glyph-name="gid16" horiz-adv-x="1369" d="M162,0V1446H686q284,0 421.5-97.5T1245,1067q0-108-55-187.5T994,741q91-23 147-62t86-86.5t41-99T1279,392q0-200-136-296T710,0H162ZM453,226H716q132,0 199.5,53T983,421q0,64-33,107.5T860.5,594T732,616H453V226Zm0,622H732q45,0 86.5,10.5t74,32.5T944,947.5t19,81.5q0,94-70.5,142.5T712,1220H453V848Z"/>
      <glyph unicode="C" glyph-name="gid17" horiz-adv-x="1436" d="M751-20Q549-20 402,74T175.5,338T96,735q0,228 79,391.5T401,1378t350,88q163,0 290.5-65.5t206-178.5T1340,967H1034q-14,75-51,133.5t-97,92T742,1226q-101,0-174-49T456,1019T417,731q0-270 86.5-390.5T742,220q84,0 144,38.5t97,102T1034,500h306q-13-103-50-196.5T1185,137T1010,22T751-20Z"/>
      <glyph unicode="D" glyph-name="gid23" horiz-adv-x="1440" d="M162,0V1446q11,0 61.5,0t119,0t137-0.5T594,1444q263-6 429-94t243.5-246T1344,730q0-225-82-388.5T1011.5,89T584,0H162ZM456,236H590q124,0 225.5,48T978,441t61,291q0,169-54,274.5T831,1161t-237,49H456V236Z"/>
      <glyph unicode="E" glyph-name="gid28" horiz-adv-x="1269" d="M162,0V1446h993l-1-246H455V849h607V608H453V249l712-1V0H162Z"/>
      <glyph unicode="F" glyph-name="gid40" horiz-adv-x="1227" d="M162,0V1446h984l-1-244H456V839h597V600H456V0H162Z"/>
      <glyph unicode="G" glyph-name="gid41" horiz-adv-x="1518" d="M747-20Q548-20 401.5,70.5T175.5,327T96,719q0,230 83.5,397.5T413,1375t350,91q129,0 235-41t184.5-112t123-160.5T1354,967H1046q-13,69-51.5,126T896,1184.5T756,1219q-96,0-174-49.5T459,1012T414,727q0-143 29.5-238T523,338.5T637,260t131-23q64,0 114.5,21.5T969,314t57,74.5t27,79.5l11,88H765V758l605-3V0H1171V189q-37-49-91.5-97.5t-135-80T747-20Z"/>
      <glyph unicode="H" glyph-name="gid46" horiz-adv-x="1540" d="M162,0V1446H453V866h633v580h292V0H1086V621H453V0H162Z"/>
      <glyph unicode="I" glyph-name="gid50" horiz-adv-x="615" d="M162,0V1446H453V0H162Z"/>
      <glyph unicode="J" glyph-name="gid62" horiz-adv-x="804" d="M304-20Q235-20 162-8.5T55,12l6,267q29-6 66.5-16T211,253q101,0 136,53.5T382,480v966H674V402q0-138-30-232T534,28T304-20Z"/>
      <glyph unicode="K" glyph-name="gid64" horiz-adv-x="1434" d="M162,0V1446H465V784l527,662h335L888,886L1380,0H1062L679,673L465,415V0H162Z"/>
      <glyph unicode="L" glyph-name="gid66" horiz-adv-x="1155" d="M162,0V1446H456V247h628V0H162Z"/>
      <glyph unicode="M" glyph-name="gid72" horiz-adv-x="1835" d="M162,0V1446H586L917,415l334,1031h423V0H1379V1106L1031,0H802L456,1101V0H162Z"/>
      <glyph unicode="N" glyph-name="gid73" horiz-adv-x="1564" d="M162,0V1446H451l660-957v957h292V0H1140L453,995V0H162Z"/>
      <glyph unicode="O" glyph-name="gid80" horiz-adv-x="1521" d="M763-20Q558-20 408.5,69.5t-231,255T96,720q0,231 82.5,398T411,1375.5T763,1466q201,0 350-90t230.5-257T1425,720q0-229-80.5-395T1115,69.5T763-20Zm0,240q106,0 183.5,50.5t119.5,160T1108,716q0,181-42.5,293t-120,164.5T763,1226t-183-52.5t-121-165T416,716q0-177 43-286T580,270.5T763,220Z"/>
      <glyph unicode="P" glyph-name="gid96" horiz-adv-x="1305" d="M162,0V1446H694q158,0 283-54.5T1174.5,1231T1247,972q0-144-64-246T1003.5,570T732,516H456V0H162ZM453,742H724q110,0 180,70.5T974,987q0,108-74,171.5T720,1222H453V742Z"/>
      <glyph unicode="Q" glyph-name="gid98" horiz-adv-x="1546" d="M1421-246q-94,0-178.5,16T1080-162.5T927-6q-50-7-87.5-10.5T762-20Q559-20 409.5,68.5T178,322.5T96,720t82.5,399t232,257T762,1466q203,0 352-90t231-257t82-399q0-198-59.5-348T1186,121q24-60 89.5-96T1421-12V-246ZM762,220q164,0 255,115.5T1108,717q0,269-91,389T762,1226q-163,0-254-120.5T417,716q0-265 91-380.5T762,220Z"/>
      <glyph unicode="R" glyph-name="gid99" horiz-adv-x="1392" d="M162,0V1446H772q173,0 283-55t162-152.5t52-224.5q0-114-35.5-192.5t-93-130.5T1015,606L1284,0H981L746,557H453V0H162ZM453,782H720q117,0 185.5,63T974,1007q0,100-66,158t-167,58H453V782Z"/>
      <glyph unicode="S" glyph-name="gid106" horiz-adv-x="1384" d="M704-20Q596-20 493,7T305,88T165.5,223T100,413H399q15-66 57.5-111t110-69T721,209q69,0 131,20t101,61t39,103q0,74-54,111.5T791,564L520,623q-115,24-200.5,74.5T188,829.5T142,1028q0,135 74.5,233t203,150.5T708,1464q181,0 305.5-58.5t190.5-158t67-221.5H979q-8,75-46,120.5t-97.5,66T700,1233q-131,0-191-53t-60-123q0-66 45.5-106.5T641,889l251-54q140-27 227-85.5T1246,608t40-186q0-131-74.5-230.5T1006,36T704-20Z"/>
      <glyph unicode="T" glyph-name="gid114" horiz-adv-x="1232" d="M475,0V1186H38v260H1195V1186H768V0H475Z"/>
      <glyph unicode="U" glyph-name="gid120" horiz-adv-x="1448" d="M740-20Q529-20 402,50.5T218.5,251T162,561v885H459V539q0-162 78-236.5T740,228q83,0 147,32.5t100.5,101T1024,539v907h295V551q0-175-57-303.5t-184.5-198T740-20Z"/>
      <glyph unicode="V" glyph-name="gid134" horiz-adv-x="1407" d="M538,0L38,1446H317L704,339l385,1107h280L869,0H538Z"/>
      <glyph unicode="W" glyph-name="gid135" horiz-adv-x="1937" d="M464,0L38,1446H324L593,491l269,955h211l272-955l269,955h285L1472,0H1239L967,945L693,0H464Z"/>
      <glyph unicode="X" glyph-name="gid140" horiz-adv-x="1434" d="M55,0L536,734L70,1446H431L720,978l286,468h310L870,772L1379,0H1015L689,522L369,0H55Z"/>
      <glyph unicode="Y" glyph-name="gid141" horiz-adv-x="1335" d="M521,0V609L19,1446H335L668,860l329,586h319L813,608V0H521Z"/>
      <glyph unicode="Z" glyph-name="gid149" horiz-adv-x="1339" d="M108,0V142L842,1202H157v244H1258V1310L514,247h736V0H108Z"/>
      <glyph unicode="[" glyph-name="gid384" horiz-adv-x="674" d="M149-322l-1,1768H607V1281H388V-156H606V-322H149Z"/>
      <glyph unicode="\" glyph-name="gid377" horiz-adv-x="762" d="M528-37L23,1446H227L732-37H528Z"/>
      <glyph unicode="]" glyph-name="gid385" horiz-adv-x="674" d="M68-322v166H287l-1,1437H68v165H526L525-322H68Z"/>
      <glyph unicode="^" glyph-name="gid445" horiz-adv-x="968" d="M681,245L474,756L266,246H69L380,982q19,45 56,61.5t74.5,2T569,983L879,245H681Z"/>
      <glyph unicode="_" glyph-name="gid390" horiz-adv-x="1106" d="M116-276V-65l867,1V-276H116Z"/>
      <glyph unicode="`" glyph-name="gid483" horiz-adv-x="528" d="M307,1155L11,1446H312l206-291H307Z"/>
      <glyph unicode="a" glyph-name="gid154" horiz-adv-x="1133" d="M432-20q-98,0-177.5,37T129,124.5T83,296q0,170 127,258.5T611,646l130,2v62q0,71-41.5,109.5T570,857q-63-1-120.5-30T370,726H127q6,112 65.5,184.5t160.5,108T584,1054q158,0 254-39.5t139.5-113T1021,727V0H777L753,178Q700,66 620.5,23T432-20Zm99,192q39,0 76.5,14.5t67.5,39T722.5,281T741,345V498l-105-2q-73-1-136-17.5T398.5,425T360,325q0-72 49.5-112.5T531,172Z"/>
      <glyph unicode="b" glyph-name="gid169" horiz-adv-x="1217" d="M701-20Q624-20 568,0T473,53.5T409,128t-39,84L337,0H125V1486H418V894q19,33 49,62t70,51t88.5,34.5T729,1054q193,0 302.5-139T1141,523q0-164-50-286T943,47.5T701-20ZM637,190q94,0 156.5,77.5T856,527q0,161-59.5,238T635,842q-73,0-121-34.5T442.5,703T418,527q0-183 54.5-260T637,190Z"/>
      <glyph unicode="c" glyph-name="gid170" horiz-adv-x="1094" d="M575-20Q431-20 318,44T140.5,227.5T76,513q0,160 62,282T312.5,985.5T575,1054q130,0 224.5-53t149-143T1011,657H768q-7,41-29,81.5t-62,67T577,832q-102,0-165.5-78.5T348,515q0-151 62-239.5T583,187q59,0 98.5,29T743,285.5T771,361h237q-7-107-62-193.5T796.5,30.5T575-20Z"/>
      <glyph unicode="d" glyph-name="gid176" horiz-adv-x="1217" d="M516-20Q308-20 192,123.5T76,523q0,162 47,281T262,988.5T487,1054q56,0 104.5-12.5T680,1007t70-51t49-62v592h293V0H880L847,212q-15-43-39.5-84T744,53.5T648.5,0T516-20Zm64,210q110,0 164.5,77T799,527q-1,106-25,176T702.5,807.5T582,842q-95,0-158-72.5T361,527q0-173 59-255t160-82Z"/>
      <glyph unicode="e" glyph-name="gid181" horiz-adv-x="1153" d="M600-20Q446-20 329.5,44.5T148,227T83,505q0,155 59.5,279.5T314,981.5T585,1054q158,0 265-66.5t162-185T1067,529V450H372q0-79 26-137.5t75.5-90T593,191q75,0 131,32t79,105h263q-18-110-88-188T808,21T600-20ZM372,624H794q0,62-23.5,114t-70,82T584,850q-67,0-114.5-32.5t-73-84.5T372,624Z"/>
      <glyph unicode="f" glyph-name="gid194" horiz-adv-x="793" d="M241,0V831H50v203H241v149q0,125 74,194t208,69H760l2-194H625q-55,0-76-27.5T528,1134V1034H752V831H534V0H241Z"/>
      <glyph unicode="g" glyph-name="gid195" horiz-adv-x="1257" d="M605-342q-276,0-419.5,70T42-88Q42-35 69.5,1t65,57.5t69,33T243,107q-16,9-46.5,26.5t-55.5,48T116,261q0,55 52.5,102T328,428Q226,476 172.5,558T119,726q0,102 64,175t175,111t251,38q106,0 174.5-22.5T910,969q23,9 60.5,23.5t82,32t86.5,35t75,31.5l-2-226l-178-29q10-27 16-58t6-51q0-90-52.5-168T847,433T588,385q-18,0-50,1t-52,3q-58-3-80.5-15T383,346q0-24 45-31.5T564,301q33-2 90-5t125-8q190-13 283.5-93.5T1156-8q0-145-137.5-239.5T605-342Zm47,163q121,0 173.5,30T878-63q0,47-40.5,76.5T721,48L484,64q-47,2-82-14T347.5,6T328-54q0-65 79-95t245-30ZM597,548q83,0 133,45.5T780,717q0,81-50,130T597,896T463,847T412,717q0-77 49.5-123T597,548Z"/>
      <glyph unicode="h" glyph-name="gid200" horiz-adv-x="1185" d="M125,0V1486H415V885q25,36 63,71.5t95,59.5t139,24q99,0 180.5-38.5t131-111.5T1073,712V0H780V669q0,70-50.5,107.5T607,814q-47,0-91-17t-71.5-51.5T417,660V0H125Z"/>
      <glyph unicode="i" glyph-name="gid204" horiz-adv-x="534" d="M128,0V1034H407V0H128Zm-3,1182v263H409V1182H125Z"/>
      <glyph unicode="j" glyph-name="gid217" horiz-adv-x="577" d="M101-332Q20-332-5.5-317.5T-31-303l-1,195l80,8q62,8 86,34t24,76V1034H449V7q0-169-82-254T101-332Zm53,1514v263H452V1182H154Z"/>
      <glyph unicode="k" glyph-name="gid220" horiz-adv-x="1159" d="M125,0V1486H417V605l380,429h314L735,622L1124,0H833L554,446L417,300V0H125Z"/>
      <glyph unicode="l" glyph-name="gid223" horiz-adv-x="658" d="M455-18Q341-18 274,9T175,80.5t-41,99T125,290V1486H411V326q0-57 24.5-92.5T528,190l49-3V7Q547-3 516-10.5T455-18Z"/>
      <glyph unicode="m" glyph-name="gid229" horiz-adv-x="1791" d="M125,0V1034H411V888q47,68 126.5,117T738,1054q53,0 108-19t103.5-55.5T1028,888q50,71 131.5,118.5T1341,1054q58,0 117.5-19T1568,973t80.5-114.5T1679,682V0H1387V646q0,62-24.5,99.5t-62,54T1221,816q-39,0-79-15.5T1074,751t-28-89V0H755V672q0,47-25,79t-62.5,48.5T591,816q-40,0-80-16.5t-67-51T417,662V0H125Z"/>
      <glyph unicode="n" glyph-name="gid230" horiz-adv-x="1186" d="M125,0V1034H412V888q24,38 62.5,73.5T572,1020t140,23q95,0 177.5-37T1023,889.5T1074,682V0H782V646q0,84-50,126T610,814q-48,0-92.5-17T445,746t-28-84V0H125Z"/>
      <glyph unicode="o" glyph-name="gid237" horiz-adv-x="1151" d="M576-20Q424-20 311.5,45t-174,184T76,511t61.5,285t174,190T577,1054t265-66.5T1015,799t61-288q0-156-59.5-275.5T845.5,48T576-20Zm1,217q77,0 124,45t68,118.5T790,521q0,82-19,155T705,794T577,839q-77,0-124.5-42.5T383,681.5T361,521q0-81 20-155.5T448,244t129-47Z"/>
      <glyph unicode="p" glyph-name="gid253" horiz-adv-x="1214" d="M125-322V1034H418l1-149q23,37 56.5,67.5T550,1006t89,35.5T740,1054q115,0 205-56.5t141.5-174T1138,525q0-188-55.5-308.5T930,38T711-20q-50,0-94,13.5T535.5,31t-67,55.5T417,155V-322H125ZM641,194q95,0 159.5,79T865,523q0,150-61.5,234.5T641,842q-113,0-168.5-91.5T417,523q0-87 24.5-162t74-121T641,194Z"/>
      <glyph unicode="q" glyph-name="gid255" horiz-adv-x="1214" d="M797-322V155q-21-37-51-68.5T678.5,31T597-6.5T503-20Q386-20 289,35T134,210.5T76,525q0,175 49,292.5t139,177T474,1054q53,0 101-12.5t89-35.5t74.5-53.5T795,885l2,149h292V-322H797ZM573,194q76,0 126,46t74.5,121T798,523q0,136-55,227.5T573,842q-94,0-159-80.5T349,523q0-163 62-246t162-83Z"/>
      <glyph unicode="r" glyph-name="gid256" horiz-adv-x="824" d="M125,0V1034H406V789q25,79 70.5,138.5t110.5,93T734,1054q14,0 26.5-1.5T779,1048V770q-9,4-21.5,5T735,777q-86,7-147-5t-99-41t-55-71t-17-94V0H125Z"/>
      <glyph unicode="s" glyph-name="gid263" horiz-adv-x="1054" d="M541-20Q433-20 333.5,15.5t-169,112T77,326H329q14-55 48.5-87T456,193.5T540,180q84,0 135.5,26.5T727,288q0,42-30.5,67T596,393L414,431q-137,29-220.5,98.5T109,727q-1,93 48.5,167t147,117T543,1054q191,0 305.5-84T965,733H721q-11,60-59.5,92.5T539,858q-75,0-124-27t-49-82q0-41 40-64.5T530,644l168-38q87-21 141.5-57.5T924,469t41.5-86.5T977,304q0-103-55-175.5T769,18T541-20Z"/>
      <glyph unicode="t" glyph-name="gid271" horiz-adv-x="833" d="M571-11Q434-11 359.5,24t-103,98T228,268V831H60v203H237l74,312H519V1035H749V831H519l2-551q0-38 9.5-56.5t30-24T613,194H752V14Q731,5 689-3T571-11Z"/>
      <glyph unicode="u" glyph-name="gid277" horiz-adv-x="1190" d="M506-20Q434-20 364.5,2T238,67T146.5,173T112,319v715H404V356q0-72 47-118t138-46q86,0 136.5,44.5T776,361v673h289V0H845L811,205q-18-91-67.5-139.5t-113-67T506-20Z"/>
      <glyph unicode="v" glyph-name="gid292" horiz-adv-x="1041" d="M415,0L27,1034H291L517,375h8l223,659h267L627,0H415Z"/>
      <glyph unicode="w" glyph-name="gid293" horiz-adv-x="1577" d="M365,0L30,1034H288L486,393h7l190,641H892l192-641h8l192,641h264L1208,0H975L783,626L590,0H365Z"/>
      <glyph unicode="x" glyph-name="gid298" horiz-adv-x="1176" d="M35,0L432,539L69,1034H375L590,744l214,290h305L743,539L1141,0H835L588,337L341,0H35Z"/>
      <glyph unicode="y" glyph-name="gid299" horiz-adv-x="1126" d="M287-330q-106,0-150,17.5T93-295v186l103-4q67-4 108,6.5T366-79t30.5,35.5T410-14l19,57L27,1034H316L564,360l250,674h286L681-6Q627-138 566.5-208t-130-96T287-330Z"/>
      <glyph unicode="z" glyph-name="gid307" horiz-adv-x="993" d="M63,0V163L573,830H89v204H927V871L416,204H930V0H63Z"/>
      <glyph unicode="{" glyph-name="gid382" horiz-adv-x="769" d="M561-322q-79,0-150.5,27t-116,80T250-83V324q0,47-23.5,86T153,473T24,497V644q120,1 173,47.5T250,825v385q0,78 45,130.5t115.5,79T556,1446H701V1281H614q-57,0-83.5-14T497,1229.5t-7-52.5V781q-2-70-34.5-113.5T375,603t-95-26q-12-1-12.5-6t12.5-7q46-4 94-23.5T455,476t35-127V-51q0-55 26-80t98-25h87V-322H561Z"/>
      <glyph unicode="|" glyph-name="gid456" horiz-adv-x="537" d="M162-322V1652H375V-322H162Z"/>
      <glyph unicode="}" glyph-name="gid383" horiz-adv-x="768" d="M29-322v166h87q72,0 98,25t26,80V349q2,82 35,127t81,64.5T451,564q14,2 13,7t-13,6q-48,5-95.5,26T275,667.5T240,781v396q0,29-7,52.5T199.5,1267T116,1281H29v165H174q76,0 146-26.5t115-79T480,1210V825q0-87 53-133.5T706,644V497q-79,0-128.5-24T504,410t-24-86V-83q0-79-44.5-132t-116-80T169-322H29Z"/>
      <glyph unicode="~" glyph-name="gid443" horiz-adv-x="1224" d="M196,555L113,702q74,76 146,127.5T429,881q62,0 109.5-19t89-42.5T710,777t89-19q72,0 125,42.5t88,99.5l85-145q-50-88-128-134.5T804,574q-60,0-108,18.5t-90.5,43t-85,43T427,697q-76,0-130-44.5T196,555Z"/>
      <glyph unicode="&#xa0;" glyph-name="gid405" horiz-adv-x="451"/>
      <glyph unicode="&#xa1;" glyph-name="gid369" horiz-adv-x="565" d="M101-322l82,908H365l79-908H101ZM112,722v312H431V722H112Z"/>
      <glyph unicode="&#xa2;" glyph-name="gid407" horiz-adv-x="1122" d="M603,202q-144,0-257,64T168,449.5T103,735q0,160 62,282t174.5,190.5T603,1276q129,0 224-53t149.5-143T1038,879H795q-6,41-28.5,81.5t-62,67T605,1054q-103,0-166.5-78.5T375,737q0-151 62-239.5T610,409q59,0 99,29t61.5,69.5T798,583h237q-6-107-61.5-193.5t-150-137T603,202ZM504,0V336H697V0H504Zm0,1110v336H697V1110H504Z"/>
      <glyph unicode="&#xa3;" glyph-name="gid419" horiz-adv-x="1296" d="M41,0V242h68q75,0 123,48.5T280,448q0,48-5,97.5T259,677H55V839H226l-20,181q-14,108 17,191t96,140t153,86t185,29q108,0 200-34t160.5-98.5T1124,1179l-254-78q-32,70-69.5,101.5T701,1234q-47,0-84-20t-58-58t-21-91q0-42 8.5-97.5T570,840H863V678H593q6-68 5.5-114.5T588,467q-7-57-23.5-97t-40-69.5T472,244H741q97,0 145.5,36T967,404l247-54q-48-174-160-262T763,0H41Z"/>
      <glyph unicode="&#xa4;" glyph-name="gid409" horiz-adv-x="1156" d="M197,234L75,360L207,490q-35,56-52.5,111.5T137,727q0,123 60,220q9,18-3,31L76,1096l122,127l134-135q52,34 113,53.5T567,1161q125,0 230-65q13-8 23,2l111,112l122-125L931,964q34-53 53-112t19-124q0-60-16.5-119.5T937,501q-6-10 0-16l117-113L932,247L811,368q-54-35-113.5-54.5T574,294q-125,0-227,62q-17,11-31-3L197,234ZM571,487q69,0 123.5,33.5T780,609t31,119q0,63-31,118t-85.5,89T571,969T447.5,935t-86-89T330,728q0-64 31.5-119t86-88.5T571,487Z"/>
      <glyph unicode="&#xa5;" glyph-name="gid421" horiz-adv-x="1318" d="M499,0V603L-11,1446H367L696,867l326,579h307L831,638V0H499ZM201,224V382l929,1V225l-929-1Zm0,313V696l929,1V537H201Z"/>
      <glyph unicode="&#xa6;" glyph-name="gid457" horiz-adv-x="537" d="M162,837v815H375V837H162Zm0-1159V494H375V-322H162Z"/>
      <glyph unicode="&#xa7;" glyph-name="gid451" horiz-adv-x="1025" d="M515-155q-114,0-206.5,32T151-38T56,77l179,90q42-56 107-100T510,23q79,0 129.5,27.5T690,132q0,40-33,73T533,274L380,331Q221,391 149,464.5T77,651q0,92 48,158.5T253,913q-62,37-97.5,75.5t-50,80.5T91,1158q0,87 48.5,156.5t139,110.5T494,1466q103,0 187-31t143.5-81.5T914,1246l-180-88q-43,49-98.5,89.5T503,1288q-71,0-111.5-28T351,1185q0-35 31-62t81-47l156-60q167-64 242.5-140T937,683q0-94-45.5-156T774,423q92-51 133.5-111T949,169q0-95-50-168T752-113.5T515-155Zm53,670q41-4 71,13t46,47.5T698,643q-5,44-37.5,78T545,786l-89,35q-45-4-77-22.5T330,752t-17-59q0-43 30.5-71.5T469,555l99-40Z"/>
      <glyph unicode="&#xa8;" glyph-name="gid482" horiz-adv-x="762" d="M476,1208l3,238H752l-2-238H476Zm-466,0l3,238H286l-2-238H10Z"/>
      <glyph unicode="&#xa9;" glyph-name="gid452" horiz-adv-x="1661" d="M823-20Q669-20 534.5,37.5T298,197T138.5,434T81,724q0,153 57.5,287.5T298,1248t236.5,160T823,1466t288.5-58t237-160T1509,1011.5T1567,724q0-155-58-290T1348.5,197t-237-159.5T823-20Zm6,333q-117,0-206.5,52t-141,145T430,725q0,124 52,218t142,146.5T829,1142q97,0 168-39t116-98.5T1178,883L975,860q-18,49-48.5,89T836,989q-76,0-123.5-65T665,729q0-134 50-198.5T848,466q70,0 112,39.5t72,99.5l146-37q-12-36-38.5-80t-69-84T968,338.5T829,313Zm-6-170q122,0 225.5,40.5t180,116.5T1347,483.5T1389,724q0,132-42,238.5T1228.5,1146t-180,118.5T823,1306q-124,0-227.5-41.5T416.5,1146t-117-183.5T258,724q0-133 41.5-240.5T416.5,300t179-116.5T823,143Z"/>
      <glyph unicode="&#xaa;" glyph-name="gid314" horiz-adv-x="813" d="M297,794q-103,0-158.5,50.5T83,978q0,97 90.5,157.5T423,1201l77,4v43q0,57-33,76t-72,19q-40,0-74-17t-59-67L99,1295q37,83 105,126t198,43q154-1 216.5-56T681,1257q0-83 0-137.5t0-113.5q0-11 0.5-37.5t2-55.5t4.5-48l14-59H515l-15,70q-53-41-97.5-61.5T297,794Zm72,119q59,0 99,35q15,14 23.5,27t8.5,31v97l-64-3q-78-3-122.5-32.5T269,989q0-34 26.5-55T369,913Z"/>
      <glyph unicode="&#xab;" glyph-name="gid398" horiz-adv-x="999" d="M719,129L481,502L718,891H874L711,502L873,129H719Zm-381,0L101,502L337,891H493L330,502L492,129H338Z"/>
      <glyph unicode="&#xac;" glyph-name="gid444" horiz-adv-x="1177" d="M116,621V834h945V621H116ZM824,319l-1,442h238V319H824Z"/>
      <glyph unicode="&#xad;" glyph-name="gid387" horiz-adv-x="786" d="M120,408V621H666V409l-546-1Z"/>
      <glyph unicode="&#xae;" glyph-name="gid453" horiz-adv-x="1105" d="M547,536q-130,0-235.5,62t-168,167.5T81,1000t62.5,235t168,168.5T547,1466q128,0 233.5-62.5t168-168.5t62.5-235T948.5,765.5T780.5,598T547,536Zm0,116q101,0 177,43T842,816t42,184t-42,184.5t-118,122T547,1350q-104,0-180-43.5t-118-122T207,1000t42-184T367,695t180-43ZM359,767v461H575q83,0 129.5-31.5T751,1105q0-48-27.5-78.5T658,981l91-214H623L553,969H473V767H359Zm114,283h97q26,0 44,12t18,36q0,23-17,36.5T564,1148H473v-98Z"/>
      <glyph unicode="&#xaf;" glyph-name="gid490" horiz-adv-x="786" d="M35,1205v187H738V1205H35Z"/>
      <glyph unicode="&#xb0;" glyph-name="gid455" horiz-adv-x="948" d="M467,1001q-97,0-172.5,43T176,1162.5T133,1336t43,174t118.5,119.5T467,1673q96,0 171.5-43.5T758,1510t44-174t-44-173.5T638.5,1044T467,1001Zm-2,164q74,0 117.5,47.5T626,1334t-43.5,121T463,1502q-73,0-117-47t-43-121q2-74 45-121.5T465,1165Z"/>
      <glyph unicode="&#xb1;" glyph-name="gid442" horiz-adv-x="1177" d="M116,71V283h945V72L116,71Zm580,933l365,1V792l-365-1V427H483V791H116v213H483v367H696V1004Z"/>
      <glyph unicode="&#xb2;" glyph-name="gid357" horiz-adv-x="784" d="M59,747v92v46q0,81 34,137t88.5,95.5t115,70t114.5,59t88.5,63T534,1393q0,54-38,88t-102,34q-66,0-114.5-39T221,1356H42q0,88 40,158.5T201,1627t198,42q153,0 241.5-75.5T729,1394q0-80-33.5-134.5t-86-91.5t-112-64.5t-112-53.5t-86-58.5T266,912v-7H728V747H59Z"/>
      <glyph unicode="&#xb3;" glyph-name="gid358" horiz-adv-x="850" d="M409,736q-165,1-255.5,80T62,1032H241q13-77 60-111t110-34q84,0 131.5,35t47.5,91q0,55-46.5,90T417,1140l-87,3v149l79,4q48,2 84,18t56,42.5t20,61.5q0,49-44.5,78T411,1525q-43,0-79.5-14.5t-59.5-47T246,1376H67q0,97 45.5,162.5T237,1637t177,33q102,0 181.5-26.5t125.5-80T767,1426q0-67-38.5-118T604,1227q74-21 129-74t55-146q0-90-51-150.5T600,766T409,736Z"/>
      <glyph unicode="&#xb4;" glyph-name="gid484" horiz-adv-x="528" d="M10,1155l206,291H517L220,1155H10Z"/>
      <glyph unicode="&#xb5;" glyph-name="gid446" horiz-adv-x="1208" d="M112-330V1060H411V401q0-41 21.5-73t59-50T577,260q66,0 118,37.5T780,399v661h303L1078,0H786V164q-52-52-99-80T586,47q-45-6-89.5-1.5T411,70V-330H112Z"/>
      <glyph unicode="&#xb6;" glyph-name="gid450" horiz-adv-x="1198" d="M486-166V598q-113,8-206.5,59T131,798.5T76,1017q0,117 53,214.5t157,156T541,1446h545V1281H961V-166H782V1281H666V-166H486Z"/>
      <glyph unicode="&#xb7;" glyph-name="gid372" horiz-adv-x="518" d="M99,585V872H398V585H99Z"/>
      <glyph unicode="&#xb8;" glyph-name="gid491" horiz-adv-x="546" d="M260-425q-63,0-121.5,12T30-371l40,98q31-19 70.5-34T224-322q48,0 74,16.5T324-260q0,39-38,60T154-178q-12,0-16.5,3.5T138-159L211,10H341L296-107q76-2 120-26t63.5-59.5T499-263q0-51-33-87.5T378.5-406T260-425Z"/>
      <glyph unicode="&#xb9;" glyph-name="gid356" horiz-adv-x="513" d="M204,744v679H42v106q116,0 167.5,32.5T268,1654H394V744H204Z"/>
      <glyph unicode="&#xba;" glyph-name="gid315" horiz-adv-x="806" d="M403,795q-99,0-173,42.5T116,955T76,1127q0,101 42,177t116,118.5T403,1465q99,0 172.5-43T690,1302.5T731,1127q0-97-41-172T575.5,837.5T403,795Zm0,128q68,0 101,53t33,156t-33,155.5T403,1340q-67,0-100-52.5T270,1132t33-156t100-53Z"/>
      <glyph unicode="&#xbb;" glyph-name="gid399" horiz-adv-x="1022" d="M502,129L666,502L501,891H658L894,502L658,129H502Zm-379,0L285,502L122,891H277L513,502L277,129H123Z"/>
      <glyph unicode="&#xbc;" glyph-name="gid361" horiz-adv-x="1662" d="M204,536v679H42v106q116,0 167.5,32.5T268,1446H394V536H204ZM399-8L226-5l975,1467h170L399-8ZM1300,2l1,201H884V355l413,557h183V359h140V203H1480V2H1300ZM1057,359h244V685L1057,359Z"/>
      <glyph unicode="&#xbd;" glyph-name="gid360" horiz-adv-x="1803" d="M204,536v679H42v106q116,0 167.5,32.5T268,1446H394V536H204ZM399-8L226-5l975,1467h170L399-8Zm679,7V91v46q0,81 34,137t88.5,95.5t115,70t114.5,59t88.5,63T1553,645q0,54-38,88t-102,34q-66,0-114.5-39T1240,608H1061q0,88 40,158.5T1220,879t198,42q153,0 241.5-75.5T1748,646q0-80-33.5-134.5t-86-91.5t-112-64.5t-112-53.5t-86-58.5T1285,164v-7h462V-1H1078Z"/>
      <glyph unicode="&#xbe;" glyph-name="gid362" horiz-adv-x="1919" d="M409,526q-165,1-255.5,80T62,822H241q13-77 60-111t110-34q84,0 131.5,35T590,803q0,55-46.5,90T417,930l-87,3v149l79,4q48,2 84,18t56,42.5t20,61.5q0,49-44.5,78T411,1315q-43,0-79.5-14.5t-59.5-47T246,1166H67q0,97 45.5,162.5T237,1427t177,33q102,0 181.5-26.5t125.5-80T767,1216q0-67-38.5-118T604,1017q74-21 129-74t55-146q0-90-51-150.5T600,556T409,526ZM655-8L482-5l975,1467h170L655-8ZM1557,2l1,201H1141V355l413,557h183V359h140V203H1737V2H1557ZM1314,359h244V685L1314,359Z"/>
      <glyph unicode="&#xbf;" glyph-name="gid371" horiz-adv-x="1087" d="M542-342q-157,0-263,46T120-172.5T67,0q0,82 28,138.5T166.5,238t93,79.5t93,75t71,87T451,595H687q0-83-23.5-145T602,341t-80.5-85t-80-74.5t-61.5-76T356,15q0-66 54-108t135-42q54,0 105,23t91.5,64T803,47l249-59Q988-170 857-256T542-342ZM411,722v312H731V722H411Z"/>
      <glyph unicode="&#xc0;" glyph-name="gid7" horiz-adv-x="1453" d="M55,0L572,1446H881L1398,0H1107L989,335H468L348,0H55ZM534,590H918L727,1165L534,590Zm85,977L323,1858H624l206-291H619Z"/>
      <glyph unicode="&#xc1;" glyph-name="gid2" horiz-adv-x="1453" d="M55,0L572,1446H881L1398,0H1107L989,335H468L348,0H55ZM534,590H918L727,1165L534,590Zm84,977l206,291h301L828,1567H618Z"/>
      <glyph unicode="&#xc2;" glyph-name="gid4" horiz-adv-x="1453" d="M55,0L572,1446H881L1398,0H1107L989,335H468L348,0H55ZM534,590H918L727,1165L534,590ZM361,1567l264,259H827l257-259H856L724,1707L578,1567H361Z"/>
      <glyph unicode="&#xc3;" glyph-name="gid13" horiz-adv-x="1453" d="M55,0L572,1446H881L1398,0H1107L989,335H468L348,0H55ZM534,590H918L727,1165L534,590ZM432,1603l-45,153q36,37 80,64t112,27q56,0 106.5-15t97-30.5T874,1786q53,0 94,22.5t73,46.5l36-173q-31-25-83-47.5T875,1612q-56,0-101.5,14T684,1653.5T589,1667t-84.5-15.5T432,1603Z"/>
      <glyph unicode="&#xc4;" glyph-name="gid6" horiz-adv-x="1453" d="M55,0L572,1446H881L1398,0H1107L989,335H468L348,0H55ZM534,590H918L727,1165L534,590ZM822,1620l3,238h273l-2-238H822Zm-466,0l3,238H632l-2-238H356Z"/>
      <glyph unicode="&#xc5;" glyph-name="gid11" horiz-adv-x="1453" d="M55,0L572,1446H881L1398,0H1107L989,335H468L348,0H55ZM534,590H918L727,1165L534,590Zm193,957q-91,0-154,64t-63,157q0,88 64,149t153,61q60,0 109.5-28.5t79-77T945,1764q0-91-63.5-154T727,1547Zm-2,114q42,0 70.5,31t28.5,71q0,43-28.5,71T725,1862q-41,0-71.5-28T623,1763q0-40 30.5-71t71.5-31Z"/>
      <glyph unicode="&#xc6;" glyph-name="gid14" horiz-adv-x="2080" d="M0,0L774,1446H1955l-1-243H1269V848h593V608H1269V244h707V0H937V338H471L293,0H0ZM581,590H937v665L581,590Z"/>
      <glyph unicode="&#xc7;" glyph-name="gid20" horiz-adv-x="1436" d="M744-425q-63,0-121.5,12T514-371l40,98q31-19 70.5-34T708-322q48,0 74,16.5T808-260q0,39-38,60T638-178q-12,0-16.5,3.5T622-159L695,10H825L780-107q76-2 120-26t63.5-59.5T983-263q0-51-33.5-87.5T862-406T744-425Zm7,405Q549-20 402,74T175.5,338T96,735q0,228 79,391.5T401,1378t350,88q163,0 290.5-65.5t206-178.5T1340,967H1034q-14,75-51,133.5t-97,92T742,1226q-101,0-174-49T456,1019T417,731q0-270 86.5-390.5T742,220q84,0 144,38.5t97,102T1034,500h306q-13-103-50-196.5T1185,137T1010,22T751-20Z"/>
      <glyph unicode="&#xc8;" glyph-name="gid36" horiz-adv-x="1269" d="M162,0V1446h993l-1-246H455V849h607V608H453V249l712-1V0H162ZM552,1567L256,1858H557l206-291H552Z"/>
      <glyph unicode="&#xc9;" glyph-name="gid29" horiz-adv-x="1269" d="M162,0V1446h993l-1-246H455V849h607V608H453V249l712-1V0H162ZM551,1567l206,291h301L761,1567H551Z"/>
      <glyph unicode="&#xca;" glyph-name="gid32" horiz-adv-x="1269" d="M162,0V1446h993l-1-246H455V849h607V608H453V249l712-1V0H162ZM296,1567l264,259H762l257-259H791L659,1707L513,1567H296Z"/>
      <glyph unicode="&#xcb;" glyph-name="gid34" horiz-adv-x="1269" d="M162,0V1446h993l-1-246H455V849h607V608H453V249l712-1V0H162ZM755,1620l3,238h273l-2-238H755Zm-466,0l3,238H565l-2-238H289Z"/>
      <glyph unicode="&#xcc;" glyph-name="gid57" horiz-adv-x="615" d="M162,0V1446H453V0H162Zm39,1567L-95,1858H206l206-291H201Z"/>
      <glyph unicode="&#xcd;" glyph-name="gid51" horiz-adv-x="615" d="M162,0V1446H453V0H162Zm37,1567l206,291H706L409,1567H199Z"/>
      <glyph unicode="&#xce;" glyph-name="gid53" horiz-adv-x="615" d="M162,0V1446H453V0H162ZM-56,1567l264,259H410l257-259H439L307,1707L161,1567H-56Z"/>
      <glyph unicode="&#xcf;" glyph-name="gid55" horiz-adv-x="615" d="M162,0V1446H453V0H162ZM404,1620l3,238H680l-2-238H404Zm-466,0l3,238H214l-2-238H-62Z"/>
      <glyph unicode="&#xd0;" glyph-name="gid24" horiz-adv-x="1498" d="M70,612V825H804V612H70ZM219,0V1446q12,0 62.5,0t119,0t137-0.5T652,1444q263-6 428.5-94T1324,1104t78-374q0-225-82-388.5T1069.5,89T642,0H219ZM514,236H648q124,0 225.5,48t162,157T1096,732q0,169-53.5,274.5T889,1161t-237,49H514V236Z"/>
      <glyph unicode="&#xd1;" glyph-name="gid79" horiz-adv-x="1564" d="M162,0V1446H451l660-957v957h292V0H1140L453,995V0H162ZM487,1603l-45,153q36,37 80,64t112,27q56,0 106.5-15t97-30.5T929,1786q53,0 94,22.5t73,46.5l36-173q-31-25-83-47.5T930,1612q-56,0-101.5,14T739,1653.5T644,1667t-84.5-15.5T487,1603Z"/>
      <glyph unicode="&#xd2;" glyph-name="gid86" horiz-adv-x="1521" d="M763-20Q558-20 408.5,69.5t-231,255T96,720q0,231 82.5,398T411,1375.5T763,1466q201,0 350-90t230.5-257T1425,720q0-229-80.5-395T1115,69.5T763-20Zm0,240q106,0 183.5,50.5t119.5,160T1108,716q0,181-42.5,293t-120,164.5T763,1226t-183-52.5t-121-165T416,716q0-177 43-286T580,270.5T763,220ZM654,1567L358,1858H659l206-291H654Z"/>
      <glyph unicode="&#xd3;" glyph-name="gid81" horiz-adv-x="1521" d="M763-20Q558-20 408.5,69.5t-231,255T96,720q0,231 82.5,398T411,1375.5T763,1466q201,0 350-90t230.5-257T1425,720q0-229-80.5-395T1115,69.5T763-20Zm0,240q106,0 183.5,50.5t119.5,160T1108,716q0,181-42.5,293t-120,164.5T763,1226t-183-52.5t-121-165T416,716q0-177 43-286T580,270.5T763,220ZM653,1567l206,291h301L863,1567H653Z"/>
      <glyph unicode="&#xd4;" glyph-name="gid83" horiz-adv-x="1521" d="M763-20Q558-20 408.5,69.5t-231,255T96,720q0,231 82.5,398T411,1375.5T763,1466q201,0 350-90t230.5-257T1425,720q0-229-80.5-395T1115,69.5T763-20Zm0,240q106,0 183.5,50.5t119.5,160T1108,716q0,181-42.5,293t-120,164.5T763,1226t-183-52.5t-121-165T416,716q0-177 43-286T580,270.5T763,220ZM398,1567l264,259H864l257-259H893L761,1707L615,1567H398Z"/>
      <glyph unicode="&#xd5;" glyph-name="gid94" horiz-adv-x="1521" d="M763-20Q558-20 408.5,69.5t-231,255T96,720q0,231 82.5,398T411,1375.5T763,1466q201,0 350-90t230.5-257T1425,720q0-229-80.5-395T1115,69.5T763-20Zm0,240q106,0 183.5,50.5t119.5,160T1108,716q0,181-42.5,293t-120,164.5T763,1226t-183-52.5t-121-165T416,716q0-177 43-286T580,270.5T763,220ZM467,1603l-45,153q36,37 80,64t112,27q56,0 106.5-15t97-30.5T909,1786q53,0 94,22.5t73,46.5l36-173q-31-25-83-47.5T910,1612q-56,0-101.5,14T719,1653.5T624,1667t-84.5-15.5T467,1603Z"/>
      <glyph unicode="&#xd6;" glyph-name="gid85" horiz-adv-x="1521" d="M763-20Q558-20 408.5,69.5t-231,255T96,720q0,231 82.5,398T411,1375.5T763,1466q201,0 350-90t230.5-257T1425,720q0-229-80.5-395T1115,69.5T763-20Zm0,240q106,0 183.5,50.5t119.5,160T1108,716q0,181-42.5,293t-120,164.5T763,1226t-183-52.5t-121-165T416,716q0-177 43-286T580,270.5T763,220Zm94,1400l3,238h273l-2-238H857Zm-466,0l3,238H667l-2-238H391Z"/>
      <glyph unicode="&#xd7;" glyph-name="gid437" horiz-adv-x="1153" d="M267,269L118,420l767,768l151-151L267,269Zm616,0L116,1036l149,151l769-767L883,269Z"/>
      <glyph unicode="&#xd8;" glyph-name="gid92" horiz-adv-x="1552" d="M172-27L43,104L210,276q-52,87-79,198.5T104,719q0,231 82,398.5t231.5,258T770,1466q136,0 247.5-41T1213,1305l162,166l127-129l-174-182q51-87 78-198t27-242q0-229-81-395T1122,69.5T769-20Q634-20 523,20T330,133L172-27ZM771,215q134,0 208,86t89,269q8,79 6,159.5T1060,897L529,333q77-118 242-118ZM476,538l534,566q-39,67-98.5,98.5T770,1234q-139,0-215-96T464,840q-6-75-2.5-150.5T476,538Z"/>
      <glyph unicode="&#xd9;" glyph-name="gid126" horiz-adv-x="1448" d="M740-20Q529-20 402,50.5T218.5,251T162,561v885H459V539q0-162 78-236.5T740,228q83,0 147,32.5t100.5,101T1024,539v907h295V551q0-175-57-303.5t-184.5-198T740-20ZM633,1567L337,1858H638l206-291H633Z"/>
      <glyph unicode="&#xda;" glyph-name="gid121" horiz-adv-x="1448" d="M740-20Q529-20 402,50.5T218.5,251T162,561v885H459V539q0-162 78-236.5T740,228q83,0 147,32.5t100.5,101T1024,539v907h295V551q0-175-57-303.5t-184.5-198T740-20ZM632,1567l206,291h301L842,1567H632Z"/>
      <glyph unicode="&#xdb;" glyph-name="gid123" horiz-adv-x="1448" d="M740-20Q529-20 402,50.5T218.5,251T162,561v885H459V539q0-162 78-236.5T740,228q83,0 147,32.5t100.5,101T1024,539v907h295V551q0-175-57-303.5t-184.5-198T740-20ZM377,1567l264,259H843l257-259H872L740,1707L594,1567H377Z"/>
      <glyph unicode="&#xdc;" glyph-name="gid125" horiz-adv-x="1448" d="M740-20Q529-20 402,50.5T218.5,251T162,561v885H459V539q0-162 78-236.5T740,228q83,0 147,32.5t100.5,101T1024,539v907h295V551q0-175-57-303.5t-184.5-198T740-20Zm96,1640l3,238h273l-2-238H836Zm-466,0l3,238H646l-2-238H370Z"/>
      <glyph unicode="&#xdd;" glyph-name="gid142" horiz-adv-x="1335" d="M521,0V609L19,1446H335L668,860l329,586h319L813,608V0H521Zm71,1568l206,291h301L802,1568H592Z"/>
      <glyph unicode="&#xde;" glyph-name="gid97" horiz-adv-x="1361" d="M162,0V1446H456V1169H750q161,0 286-47.5t196-143T1303,737q0-143-71-240T1037,350T754,300H456V0H162ZM456,541H741q78,0 135.5,19T966,622.5T998,739q0,69-32,111t-90.5,60.5T737,929H456V541Z"/>
      <glyph unicode="&#xdf;" glyph-name="gid270" horiz-adv-x="1254" d="M754-20Q672-20 603-1.5T486,47l87,180q33-20 72.5-39.5T744,168q74,0 122.5,35T915,306q0,48-24.5,77t-68,50.5T721,477q-57,24-106,57t-79.5,82T505,736q0,76 37,127t95,94q33,27 63.5,52.5t51,55T772,1135q0,53-40,87.5T615,1257q-94,0-148-57.5T413,1044V0H127l-2,989q2,90 30.5,172.5t88,146.5T398,1409t231,37q135,0 225.5-36.5t136-103.5t45.5-156q0-72-29-123.5T920,936T776,860q-30-16-43.5-27T719,804q0-19 13-28.5T777,756q71-30 142-63.5T1048.5,613T1142,500.5T1177,337q0-117-53.5-196.5T975,20.5T754-20Z"/>
      <glyph unicode="&#xe0;" glyph-name="gid160" horiz-adv-x="1133" d="M432-20q-98,0-177.5,37T129,124.5T83,296q0,170 127,258.5T611,646l130,2v62q0,71-41.5,109.5T570,857q-63-1-120.5-30T370,726H127q6,112 65.5,184.5t160.5,108T584,1054q158,0 254-39.5t139.5-113T1021,727V0H777L753,178Q700,66 620.5,23T432-20Zm99,192q39,0 76.5,14.5t67.5,39T722.5,281T741,345V498l-105-2q-73-1-136-17.5T398.5,425T360,325q0-72 49.5-112.5T531,172Zm-52,983L183,1446H484l206-291H479Z"/>
      <glyph unicode="&#xe1;" glyph-name="gid155" horiz-adv-x="1133" d="M432-20q-98,0-177.5,37T129,124.5T83,296q0,170 127,258.5T611,646l130,2v62q0,71-41.5,109.5T570,857q-63-1-120.5-30T370,726H127q6,112 65.5,184.5t160.5,108T584,1054q158,0 254-39.5t139.5-113T1021,727V0H777L753,178Q700,66 620.5,23T432-20Zm99,192q39,0 76.5,14.5t67.5,39T722.5,281T741,345V498l-105-2q-73-1-136-17.5T398.5,425T360,325q0-72 49.5-112.5T531,172Zm-54,983l206,291H984L687,1155H477Z"/>
      <glyph unicode="&#xe2;" glyph-name="gid157" horiz-adv-x="1133" d="M432-20q-98,0-177.5,37T129,124.5T83,296q0,170 127,258.5T611,646l130,2v62q0,71-41.5,109.5T570,857q-63-1-120.5-30T370,726H127q6,112 65.5,184.5t160.5,108T584,1054q158,0 254-39.5t139.5-113T1021,727V0H777L753,178Q700,66 620.5,23T432-20Zm99,192q39,0 76.5,14.5t67.5,39T722.5,281T741,345V498l-105-2q-73-1-136-17.5T398.5,425T360,325q0-72 49.5-112.5T531,172ZM222,1155l264,259H688l257-259H717L585,1295L439,1155H222Z"/>
      <glyph unicode="&#xe3;" glyph-name="gid166" horiz-adv-x="1133" d="M432-20q-98,0-177.5,37T129,124.5T83,296q0,170 127,258.5T611,646l130,2v62q0,71-41.5,109.5T570,857q-63-1-120.5-30T370,726H127q6,112 65.5,184.5t160.5,108T584,1054q158,0 254-39.5t139.5-113T1021,727V0H777L753,178Q700,66 620.5,23T432-20Zm99,192q39,0 76.5,14.5t67.5,39T722.5,281T741,345V498l-105-2q-73-1-136-17.5T398.5,425T360,325q0-72 49.5-112.5T531,172ZM292,1191l-45,153q36,37 80,64t112,27q56,0 106.5-15t97-30.5T734,1374q53,0 94,22.5t73,46.5l36-173q-31-25-83-47.5T735,1200q-56,0-101.5,14T544,1241.5T449,1255t-84.5-15.5T292,1191Z"/>
      <glyph unicode="&#xe4;" glyph-name="gid159" horiz-adv-x="1133" d="M432-20q-98,0-177.5,37T129,124.5T83,296q0,170 127,258.5T611,646l130,2v62q0,71-41.5,109.5T570,857q-63-1-120.5-30T370,726H127q6,112 65.5,184.5t160.5,108T584,1054q158,0 254-39.5t139.5-113T1021,727V0H777L753,178Q700,66 620.5,23T432-20Zm99,192q39,0 76.5,14.5t67.5,39T722.5,281T741,345V498l-105-2q-73-1-136-17.5T398.5,425T360,325q0-72 49.5-112.5T531,172ZM682,1208l3,238H958l-2-238H682Zm-466,0l3,238H492l-2-238H216Z"/>
      <glyph unicode="&#xe5;" glyph-name="gid164" horiz-adv-x="1133" d="M432-20q-98,0-177.5,37T129,124.5T83,296q0,170 127,258.5T611,646l130,2v62q0,71-41.5,109.5T570,857q-63-1-120.5-30T370,726H127q6,112 65.5,184.5t160.5,108T584,1054q158,0 254-39.5t139.5-113T1021,727V0H777L753,178Q700,66 620.5,23T432-20Zm99,192q39,0 76.5,14.5t67.5,39T722.5,281T741,345V498l-105-2q-73-1-136-17.5T398.5,425T360,325q0-72 49.5-112.5T531,172Zm56,963q-91,0-154,64t-63,157q0,88 64,149t153,61q60,0 109.5-28.5t79-77T805,1352q0-91-63.5-154T587,1135Zm-2,114q42,0 70.5,31t28.5,71q0,43-28.5,71T585,1450q-41,0-71.5-28T483,1351q0-40 30.5-71t71.5-31Z"/>
      <glyph unicode="&#xe6;" glyph-name="gid167" horiz-adv-x="1827" d="M432-20q-98,0-177.5,37T129,124.5T83,296q0,170 127.5,258.5T612,646l130,2v62q0,73-45,110.5T570,857q-63-1-120.5-31T370,726H127q6,107 65.5,180t161,110.5T584,1054t218-33t138-93q58,60 138.5,93t180.5,33q158,0 265.5-66.5t162-185T1741,529V450H1047q-1-79 25-137.5t75.5-90T1267,191q75,0 131.5,32T1477,328h263q-17-110-87.5-188T1482,21T1274-20q-143,0-253.5,57T844,198q-26-68-81-117T625,6T432-20Zm99,192q62,0 108.5,28.5t73,72T740,360V498l-104-2q-73-1-135.5-17.5T399,425T360,325q0-72 49.5-112.5T531,172Zm515,452h422q0,62-23,114t-69.5,82T1259,850q-68,0-115.5-32.5T1071,733t-25-109Z"/>
      <glyph unicode="&#xe7;" glyph-name="gid173" horiz-adv-x="1094" d="M565-425q-62,0-120.5,12T335-371l40,98q31-19 71-34t83-15q48,0 74,16.5T629-260q0,39-38,60T460-178q-13,0-17.5,3.5T443-159L517,10H646L602-107q75-2 119.5-26T785-192.5T804-263q0-51-33-87.5T683.5-406T565-425ZM575-20Q431-20 318,44T140.5,227.5T76,513q0,160 62,282T312.5,985.5T575,1054q130,0 224.5-53t149-143T1011,657H768q-7,41-29,81.5t-62,67T577,832q-102,0-165.5-78.5T348,515q0-151 62-239.5T583,187q59,0 98.5,29T743,285.5T771,361h237q-7-107-62-193.5T796.5,30.5T575-20Z"/>
      <glyph unicode="&#xe8;" glyph-name="gid189" horiz-adv-x="1153" d="M600-20Q446-20 329.5,44.5T148,227T83,505q0,155 59.5,279.5T314,981.5T585,1054q158,0 265-66.5t162-185T1067,529V450H372q0-79 26-137.5t75.5-90T593,191q75,0 131,32t79,105h263q-18-110-88-188T808,21T600-20ZM372,624H794q0,62-23.5,114t-70,82T584,850q-67,0-114.5-32.5t-73-84.5T372,624Zm106,531L182,1446H483l206-291H478Z"/>
      <glyph unicode="&#xe9;" glyph-name="gid182" horiz-adv-x="1153" d="M600-20Q446-20 329.5,44.5T148,227T83,505q0,155 59.5,279.5T314,981.5T585,1054q158,0 265-66.5t162-185T1067,529V450H372q0-79 26-137.5t75.5-90T593,191q75,0 131,32t79,105h263q-18-110-88-188T808,21T600-20ZM372,624H794q0,62-23.5,114t-70,82T584,850q-67,0-114.5-32.5t-73-84.5T372,624Zm105,531l206,291H984L687,1155H477Z"/>
      <glyph unicode="&#xea;" glyph-name="gid185" horiz-adv-x="1153" d="M600-20Q446-20 329.5,44.5T148,227T83,505q0,155 59.5,279.5T314,981.5T585,1054q158,0 265-66.5t162-185T1067,529V450H372q0-79 26-137.5t75.5-90T593,191q75,0 131,32t79,105h263q-18-110-88-188T808,21T600-20ZM372,624H794q0,62-23.5,114t-70,82T584,850q-67,0-114.5-32.5t-73-84.5T372,624ZM222,1155l264,259H688l257-259H717L585,1295L439,1155H222Z"/>
      <glyph unicode="&#xeb;" glyph-name="gid187" horiz-adv-x="1153" d="M600-20Q446-20 329.5,44.5T148,227T83,505q0,155 59.5,279.5T314,981.5T585,1054q158,0 265-66.5t162-185T1067,529V450H372q0-79 26-137.5t75.5-90T593,191q75,0 131,32t79,105h263q-18-110-88-188T808,21T600-20ZM372,624H794q0,62-23.5,114t-70,82T584,850q-67,0-114.5-32.5t-73-84.5T372,624Zm309,584l3,238H957l-2-238H681Zm-466,0l3,238H491l-2-238H215Z"/>
      <glyph unicode="&#xec;" glyph-name="gid212" horiz-adv-x="529" d="M125,0V1034H404V0H125Zm48,1155L-46,1446H241l130-289l-198-2Z"/>
      <glyph unicode="&#xed;" glyph-name="gid206" horiz-adv-x="529" d="M125,0V1034H404V0H125ZM358,1155l-198,2l130,289H577L358,1155Z"/>
      <glyph unicode="&#xee;" glyph-name="gid208" horiz-adv-x="529" d="M125,0V1034H404V0H125ZM-95,1155l264,259H371l257-259H400L268,1295L122,1155H-95Z"/>
      <glyph unicode="&#xef;" glyph-name="gid210" horiz-adv-x="768" d="M236,0V1034H515V0H236ZM479,1204l3,238H755l-2-238H479Zm-466,0l3,238H289l-2-238H13Z"/>
      <glyph unicode="&#xf0;" glyph-name="gid177" horiz-adv-x="1151" d="M570-20Q420-20 309,48.5t-172,186T76,499q0,129 38,227.5T218,892T370,993t181,34q154,0 249-82T913,708L728,856q-9,101-51.5,193.5t-102,173T452,1368T337,1481H572q83-58 171-147t163-207.5t122-264T1075,548q0-176-58.5-303.5t-171-196T570-20Zm8,217q75,0 122,41.5t69,113T791,511q0,142-52.5,225T579,819q-112,0-165-86T361,511q0-86 21.5-157.5t69-114T578,197ZM325,1104l-38,127l691,205l39-127L325,1104Z"/>
      <glyph unicode="&#xf1;" glyph-name="gid236" horiz-adv-x="1186" d="M125,0V1034H412V888q24,38 62.5,73.5T572,1020t140,23q95,0 177.5-37T1023,889.5T1074,682V0H782V646q0,84-50,126T610,814q-48,0-92.5-17T445,746t-28-84V0H125ZM310,1191l-45,153q36,37 80,64t112,27q56,0 106.5-15t97-30.5T752,1374q53,0 94,22.5t73,46.5l36-173q-31-25-83-47.5T753,1200q-56,0-101.5,14T562,1241.5T467,1255t-84.5-15.5T310,1191Z"/>
      <glyph unicode="&#xf2;" glyph-name="gid243" horiz-adv-x="1151" d="M576-20Q424-20 311.5,45t-174,184T76,511t61.5,285t174,190T577,1054t265-66.5T1015,799t61-288q0-156-59.5-275.5T845.5,48T576-20Zm1,217q77,0 124,45t68,118.5T790,521q0,82-19,155T705,794T577,839q-77,0-124.5-42.5T383,681.5T361,521q0-81 20-155.5T448,244t129-47ZM468,1155L172,1446H473l206-291H468Z"/>
      <glyph unicode="&#xf3;" glyph-name="gid238" horiz-adv-x="1151" d="M576-20Q424-20 311.5,45t-174,184T76,511t61.5,285t174,190T577,1054t265-66.5T1015,799t61-288q0-156-59.5-275.5T845.5,48T576-20Zm1,217q77,0 124,45t68,118.5T790,521q0,82-19,155T705,794T577,839q-77,0-124.5-42.5T383,681.5T361,521q0-81 20-155.5T448,244t129-47ZM467,1155l206,291H974L677,1155H467Z"/>
      <glyph unicode="&#xf4;" glyph-name="gid240" horiz-adv-x="1151" d="M576-20Q424-20 311.5,45t-174,184T76,511t61.5,285t174,190T577,1054t265-66.5T1015,799t61-288q0-156-59.5-275.5T845.5,48T576-20Zm1,217q77,0 124,45t68,118.5T790,521q0,82-19,155T705,794T577,839q-77,0-124.5-42.5T383,681.5T361,521q0-81 20-155.5T448,244t129-47ZM212,1155l264,259H678l257-259H707L575,1295L429,1155H212Z"/>
      <glyph unicode="&#xf5;" glyph-name="gid251" horiz-adv-x="1151" d="M576-20Q424-20 311.5,45t-174,184T76,511t61.5,285t174,190T577,1054t265-66.5T1015,799t61-288q0-156-59.5-275.5T845.5,48T576-20Zm1,217q77,0 124,45t68,118.5T790,521q0,82-19,155T705,794T577,839q-77,0-124.5-42.5T383,681.5T361,521q0-81 20-155.5T448,244t129-47ZM282,1191l-45,153q36,37 80,64t112,27q56,0 106.5-15t97-30.5T724,1374q53,0 94,22.5t73,46.5l36-173q-31-25-83-47.5T725,1200q-56,0-101.5,14T534,1241.5T439,1255t-84.5-15.5T282,1191Z"/>
      <glyph unicode="&#xf6;" glyph-name="gid242" horiz-adv-x="1151" d="M576-20Q424-20 311.5,45t-174,184T76,511t61.5,285t174,190T577,1054t265-66.5T1015,799t61-288q0-156-59.5-275.5T845.5,48T576-20Zm1,217q77,0 124,45t68,118.5T790,521q0,82-19,155T705,794T577,839q-77,0-124.5-42.5T383,681.5T361,521q0-81 20-155.5T448,244t129-47Zm94,1011l3,238H947l-2-238H671Zm-466,0l3,238H481l-2-238H205Z"/>
      <glyph unicode="&#xf7;" glyph-name="gid438" horiz-adv-x="1177" d="M116,621V834h945V621H116ZM438,187V480H742V187H438Zm0,788v293H742V975H438Z"/>
      <glyph unicode="&#xf8;" glyph-name="gid249" horiz-adv-x="1223" d="M147-15L51,88l1013,958l95-102L147-15Zm478-5Q473-20 360.5,45t-174,184T125,511t61.5,285t174,190T626,1054t265-66.5T1064,799t61-288q0-156-59.5-275.5T894.5,48T625-20Zm1,217q77,0 124,45t68.5,118.5T840,521q0,82-19.5,155T754,794T626,839q-77,0-124.5-42.5T432,681.5T410,521q0-81 20-155.5T497,244t129-47Z"/>
      <glyph unicode="&#xf9;" glyph-name="gid284" horiz-adv-x="1190" d="M506-20Q434-20 364.5,2T238,67T146.5,173T112,319v715H404V356q0-72 47-118t138-46q86,0 136.5,44.5T776,361v673h289V0H845L811,205q-18-91-67.5-139.5t-113-67T506-20ZM483,1155L187,1446H488l206-291H483Z"/>
      <glyph unicode="&#xfa;" glyph-name="gid278" horiz-adv-x="1190" d="M506-20Q434-20 364.5,2T238,67T146.5,173T112,319v715H404V356q0-72 47-118t138-46q86,0 136.5,44.5T776,361v673h289V0H845L811,205q-18-91-67.5-139.5t-113-67T506-20ZM482,1155l206,291H989L692,1155H482Z"/>
      <glyph unicode="&#xfb;" glyph-name="gid281" horiz-adv-x="1190" d="M506-20Q434-20 364.5,2T238,67T146.5,173T112,319v715H404V356q0-72 47-118t138-46q86,0 136.5,44.5T776,361v673h289V0H845L811,205q-18-91-67.5-139.5t-113-67T506-20ZM227,1155l264,259H693l257-259H722L590,1295L444,1155H227Z"/>
      <glyph unicode="&#xfc;" glyph-name="gid283" horiz-adv-x="1190" d="M506-20Q434-20 364.5,2T238,67T146.5,173T112,319v715H404V356q0-72 47-118t138-46q86,0 136.5,44.5T776,361v673h289V0H845L811,205q-18-91-67.5-139.5t-113-67T506-20ZM686,1208l3,238H962l-2-238H686Zm-466,0l3,238H496l-2-238H220Z"/>
      <glyph unicode="&#xfd;" glyph-name="gid300" horiz-adv-x="1126" d="M287-330q-106,0-150,17.5T93-295v186l103-4q67-4 108,6.5T366-79t30.5,35.5T410-14l19,57L27,1034H316L564,360l250,674h286L681-6Q627-138 566.5-208t-130-96T287-330ZM454,1155l206,291H961L664,1155H454Z"/>
      <glyph unicode="&#xfe;" glyph-name="gid254" horiz-adv-x="1208" d="M125-322V1446H417V903q33,37 75.5,71.5t100,57T731,1054q113,0 204-57t144.5-174.5T1133,525q0-187-55-307.5T928.5,38.5T714-20Q637-20 573,4.5T452,79q-21,19-28,17.5T417,68V-322H125ZM608,165q69,0 120,36.5t79.5,117T836,531q0,126-28.5,199.5T729,836T612,868q-56,0-100.5-23.5t-69.5-60T417,709V265q39-44 85-72t106-28Z"/>
      <glyph unicode="&#xff;" glyph-name="gid302" horiz-adv-x="1126" d="M287-330q-106,0-150,17.5T93-295v186l103-4q67-4 108,6.5T366-79t30.5,35.5T410-14l19,57L27,1034H316L564,360l250,674h286L681-6Q627-138 566.5-208t-130-96T287-330ZM659,1208l3,238H935l-2-238H659Zm-466,0l3,238H469l-2-238H193Z"/>
      <glyph unicode="&#x2013;" glyph-name="gid388" horiz-adv-x="1185" d="M120,390V603l944,1V391l-944-1Z"/>
      <glyph unicode="&#x2014;" glyph-name="gid389" horiz-adv-x="2297" d="M360,390V603l1577,1V391L360,390Z"/>
      <glyph unicode="&#x2018;" glyph-name="gid396" horiz-adv-x="526" d="M77,944v248l201,315H386L270,1234l102-9V944H77Z"/>
      <glyph unicode="&#x2019;" glyph-name="gid397" horiz-adv-x="523" d="M100,884l116,272l-102,10v280H409V1199L208,884H100Z"/>
      <glyph unicode="&#x201a;" glyph-name="gid392" horiz-adv-x="554" d="M94-277L209-5L108,4V287H403V38L202-277H94Z"/>
      <glyph unicode="&#x201c;" glyph-name="gid394" horiz-adv-x="959" d="M77,884v248l201,314H386L270,1175l102-10V884H77Zm433,0v248l201,314H819L703,1175l102-10V884H510Z"/>
      <glyph unicode="&#x201d;" glyph-name="gid395" horiz-adv-x="956" d="M531,884l118,272l-103,10v280H842V1199L641,884H531Zm-431,0l116,272l-102,10v280H409V1199L208,884H100Z"/>
      <glyph unicode="&#x201e;" glyph-name="gid393" horiz-adv-x="997" d="M537-277L652-5L551,4V287H846V38L645-277H537ZM94-277L209-5L108,4V287H403V38L202-277H94Z"/>
      <glyph unicode="&#x2022;" glyph-name="gid373" horiz-adv-x="706" d="M342,484q-69,0-126,34t-90.5,91.5T92,736t33.5,125.5T216,952t126,34t126-34t91-90.5T593,736T559,609.5T468,518T342,484Z"/>
      <glyph unicode="&#x2039;" glyph-name="gid400" horiz-adv-x="618" d="M338,129L101,502L337,891H493L330,502L492,129H338Z"/>
      <glyph unicode="&#x203a;" glyph-name="gid401" horiz-adv-x="617" d="M126,129L287,502L124,891H280L516,502L279,129H126Z"/>
    </font>
</defs>
</svg>
